<svg id="svg" version="1.1" xmlns="http://www.w3.org/2000/svg" xmlns:xlink="http://www.w3.org/1999/xlink" width="400" height="400" viewBox="0, 0, 400,400"><g id="svgg"><path id="path0" d="M35.731 113.179 C 28.441 117.612,23.300 142.334,25.781 161.025 C 27.993 177.691,34.229 189.774,39.088 186.812 C 44.966 183.228,49.983 166.277,49.983 150.000 C 49.983 129.577,42.130 109.287,35.731 113.179 M358.000 112.811 C 356.350 112.979,351.940 113.323,348.200 113.575 C 344.460 113.827,339.150 114.197,336.400 114.399 C 333.650 114.600,328.700 114.957,325.400 115.193 C 322.100 115.428,317.150 115.791,314.400 116.000 C 311.650 116.208,306.430 116.574,302.800 116.813 C 299.170 117.052,294.438 117.417,292.284 117.624 C 290.131 117.831,287.217 118.000,285.810 118.000 C 284.403 118.000,282.789 118.176,282.222 118.392 L 281.192 118.783 281.296 137.492 L 281.400 156.200 288.800 156.400 C 300.018 156.703,299.719 156.308,300.000 171.200 C 300.193 181.439,300.227 181.802,301.000 181.866 C 301.440 181.902,303.780 182.123,306.200 182.357 C 308.620 182.591,312.760 182.970,315.400 183.199 C 321.107 183.696,327.502 184.276,333.000 184.798 C 335.200 185.006,339.250 185.368,342.000 185.601 C 348.600 186.162,354.469 186.722,359.522 187.273 L 363.644 187.724 365.439 185.962 C 378.333 173.308,377.634 122.571,364.441 113.428 C 362.874 112.343,362.726 112.329,358.000 112.811 M55.600 114.331 C 55.600 114.513,56.070 115.818,56.645 117.231 C 64.090 135.534,64.525 160.532,57.732 179.594 C 56.750 182.347,55.841 184.942,55.712 185.360 C 55.451 186.198,56.609 186.186,69.600 185.217 C 75.610 184.769,83.938 184.162,91.800 183.600 C 105.616 182.613,109.750 182.299,114.000 181.917 C 116.712 181.673,137.832 181.435,165.450 181.339 L 212.300 181.175 212.555 179.251 C 212.924 176.476,213.877 173.016,214.800 171.106 C 215.904 168.821,215.821 168.475,214.100 168.177 C 209.993 167.466,205.923 165.448,202.302 162.329 L 200.004 160.349 197.669 162.404 C 188.054 170.868,175.174 170.919,165.009 162.535 L 162.361 160.350 160.040 162.499 C 147.714 173.911,127.060 169.037,120.633 153.200 C 118.970 149.100,118.829 147.518,118.814 132.725 L 118.800 118.449 117.100 118.249 C 116.165 118.138,112.520 117.852,109.000 117.613 C 105.480 117.374,99.990 117.001,96.800 116.784 C 93.610 116.568,88.660 116.216,85.800 116.002 C 82.940 115.789,77.990 115.423,74.800 115.189 C 71.610 114.955,66.902 114.592,64.337 114.382 C 58.604 113.912,55.600 113.895,55.600 114.331 M359.478 125.982 C 362.183 127.631,364.242 133.649,365.192 142.678 C 366.042 150.759,363.591 164.805,361.442 164.167 C 354.972 162.248,350.800 160.614,350.800 159.998 C 350.800 159.620,351.189 157.800,351.664 155.955 C 352.564 152.463,352.956 142.002,352.281 139.500 C 351.944 138.251,350.794 138.096,346.773 138.758 C 345.578 138.955,342.800 139.325,340.600 139.581 C 338.400 139.836,335.430 140.203,334.000 140.396 C 332.570 140.589,329.780 140.943,327.800 141.182 C 325.820 141.422,320.706 142.064,316.435 142.609 C 312.165 143.154,308.352 143.600,307.962 143.600 C 307.090 143.600,306.925 143.086,306.422 138.800 C 306.202 136.930,305.902 134.455,305.755 133.300 L 305.489 131.200 306.678 131.200 C 307.332 131.200,308.842 131.030,310.033 130.823 C 311.225 130.615,313.730 130.258,315.600 130.029 C 322.121 129.231,329.482 128.304,341.200 126.805 C 355.259 125.007,357.698 124.897,359.478 125.982 M87.600 162.610 L 87.600 168.820 81.300 168.710 L 75.000 168.600 74.888 163.019 C 74.742 155.708,74.063 156.400,81.387 156.400 L 87.600 156.400 87.600 162.610 M150.000 293.800 L 150.000 300.000 209.400 300.000 L 268.800 300.000 268.800 293.800 L 268.800 287.600 209.400 287.600 L 150.000 287.600 150.000 293.800 M150.400 343.800 L 150.400 374.800 209.400 374.800 L 268.400 374.800 268.400 343.800 L 268.400 312.800 209.400 312.800 L 150.400 312.800 150.400 343.800 M231.600 356.200 L 231.600 362.800 225.000 362.800 L 218.400 362.800 218.400 356.200 L 218.400 349.600 225.000 349.600 L 231.600 349.600 231.600 356.200 M256.600 356.200 L 256.600 362.600 250.100 362.710 L 243.600 362.820 243.600 356.200 L 243.600 349.580 250.100 349.690 L 256.600 349.800 256.600 356.200 " stroke="none" fill="#55a0c5" fill-rule="evenodd"></path><path id="path1" d="M140.400 94.549 C 136.811 95.740,134.321 97.884,132.695 101.183 C 131.319 103.976,131.076 144.569,132.414 148.145 C 136.115 158.037,149.929 158.485,154.843 148.873 L 155.800 147.000 155.913 125.750 C 156.025 104.791,156.015 104.469,155.159 102.183 C 152.887 96.111,146.166 92.634,140.400 94.549 M178.600 94.480 C 174.281 96.022,171.931 97.905,170.348 101.092 L 169.400 103.000 169.400 125.000 L 169.400 147.000 170.305 148.817 C 175.395 159.036,190.208 157.592,193.050 146.600 C 193.863 143.456,193.308 101.600,192.454 101.600 C 192.312 101.600,191.956 101.058,191.662 100.396 C 189.791 96.167,182.774 92.989,178.600 94.480 M214.543 94.833 C 210.840 96.257,208.216 99.227,206.834 103.560 C 206.108 105.834,206.254 144.491,206.998 146.943 C 209.104 153.885,213.077 156.000,224.015 156.000 L 231.200 156.000 231.200 130.746 C 231.200 105.329,231.141 104.127,229.740 100.919 C 227.363 95.477,220.263 92.633,214.543 94.833 M253.400 94.502 C 249.627 95.813,246.625 98.234,245.488 100.884 C 244.021 104.301,244.000 104.725,244.000 130.528 L 244.000 156.000 256.211 156.000 L 268.422 156.000 268.311 129.700 C 268.202 103.798,268.187 103.372,267.345 101.551 C 264.849 96.152,258.250 92.817,253.400 94.502 M234.800 169.371 C 224.842 172.135,221.924 184.080,229.624 190.559 C 230.750 191.506,231.586 191.948,234.519 193.144 C 235.305 193.464,241.527 193.600,255.419 193.600 L 275.200 193.600 275.200 200.000 L 275.200 206.400 254.546 206.400 C 240.667 206.400,233.353 206.254,232.246 205.956 C 226.199 204.325,220.940 200.944,217.755 196.641 L 215.800 194.000 173.700 194.000 L 131.600 194.000 131.600 202.118 L 131.600 210.235 135.228 214.618 C 137.224 217.028,139.249 219.452,139.728 220.004 C 140.208 220.556,141.410 221.994,142.400 223.200 C 143.390 224.406,144.582 225.844,145.049 226.396 C 145.515 226.948,147.760 229.650,150.036 232.400 C 152.313 235.150,154.277 237.490,154.400 237.600 C 154.524 237.710,155.789 239.237,157.213 240.993 C 158.636 242.749,160.216 244.639,160.724 245.193 C 162.723 247.372,162.800 247.993,162.800 261.849 L 162.800 274.800 209.400 274.800 L 256.000 274.800 256.000 261.849 C 256.000 247.994,256.077 247.380,258.076 245.187 C 258.966 244.211,261.958 240.617,263.199 239.033 C 263.530 238.611,264.443 237.531,265.229 236.633 C 266.015 235.735,268.892 232.300,271.622 229.000 C 274.353 225.700,276.769 222.796,276.993 222.547 C 277.217 222.298,277.967 221.398,278.661 220.547 C 279.354 219.696,281.559 217.028,283.561 214.618 L 287.200 210.235 287.200 189.518 L 287.200 168.800 261.900 168.836 C 242.994 168.862,236.145 168.998,234.800 169.371 M178.166 228.776 L 187.613 241.351 187.506 251.976 L 187.400 262.600 181.200 262.600 L 175.000 262.600 174.892 254.287 L 174.784 245.975 166.190 234.487 C 161.463 228.169,157.642 222.780,157.698 222.511 C 157.981 221.151,167.375 214.796,168.054 215.505 C 168.420 215.887,172.971 221.859,178.166 228.776 " stroke="none" fill="#f9c676" fill-rule="evenodd"></path><path id="path2" d="M84.800 12.400 C 84.800 12.620,84.524 12.800,84.187 12.800 C 83.391 12.800,80.800 15.391,80.800 16.187 C 80.800 16.524,80.620 16.800,80.400 16.800 C 80.180 16.800,80.000 17.160,80.000 17.600 C 80.000 18.040,79.820 18.400,79.600 18.400 C 79.380 18.400,79.200 18.760,79.200 19.200 C 79.200 19.640,79.020 20.000,78.800 20.000 C 78.580 20.000,78.400 20.360,78.400 20.800 C 78.400 21.240,78.220 21.600,78.000 21.600 C 77.780 21.600,77.600 21.960,77.600 22.400 C 77.600 22.840,77.420 23.200,77.200 23.200 C 76.980 23.200,76.800 23.545,76.800 23.967 C 76.800 24.388,76.665 24.793,76.500 24.867 C 76.089 25.049,74.800 27.890,74.800 28.614 C 74.800 28.936,74.620 29.200,74.400 29.200 C 74.180 29.200,74.000 29.560,74.000 30.000 C 74.000 30.440,73.820 30.800,73.600 30.800 C 73.380 30.800,73.200 31.160,73.200 31.600 C 73.200 32.040,73.020 32.400,72.800 32.400 C 72.580 32.400,72.400 32.760,72.400 33.200 C 72.400 33.640,72.220 34.000,72.000 34.000 C 71.780 34.000,71.600 34.360,71.600 34.800 C 71.600 35.240,71.420 35.600,71.200 35.600 C 70.980 35.600,70.800 35.883,70.800 36.229 C 70.800 37.173,69.786 38.000,68.629 38.000 C 68.063 38.000,67.600 38.180,67.600 38.400 C 67.600 38.620,66.880 38.800,66.000 38.800 C 65.120 38.800,64.400 38.980,64.400 39.200 C 64.400 39.420,63.680 39.600,62.800 39.600 C 61.920 39.600,61.200 39.780,61.200 40.000 C 61.200 40.220,60.570 40.400,59.800 40.400 C 59.030 40.400,58.400 40.557,58.400 40.749 C 58.400 40.941,57.545 41.205,56.500 41.336 C 55.455 41.467,53.340 41.862,51.800 42.214 C 50.260 42.567,48.476 42.957,47.834 43.082 C 47.193 43.208,45.888 44.091,44.934 45.044 L 43.200 46.779 43.200 49.828 C 43.200 53.691,42.982 53.385,52.698 63.103 C 60.129 70.534,60.400 70.861,60.400 72.403 C 60.400 73.281,60.239 74.000,60.042 74.000 C 59.845 74.000,59.579 74.675,59.450 75.500 C 59.321 76.325,58.997 78.395,58.729 80.100 C 58.461 81.805,58.097 83.200,57.921 83.200 C 57.744 83.200,57.600 83.920,57.600 84.800 C 57.600 85.680,57.420 86.400,57.200 86.400 C 56.980 86.400,56.800 87.120,56.800 88.000 C 56.800 88.880,56.620 89.600,56.400 89.600 C 56.161 89.600,56.000 91.133,56.000 93.400 C 56.000 95.667,56.161 97.200,56.400 97.200 C 56.620 97.200,56.800 97.483,56.800 97.829 C 56.800 98.555,57.458 99.283,58.600 99.822 C 59.159 100.086,57.833 100.234,54.204 100.313 C 50.891 100.385,48.959 100.276,48.871 100.013 C 48.686 99.459,32.542 99.447,32.200 100.000 C 32.064 100.220,31.513 100.400,30.976 100.400 C 30.439 100.400,30.000 100.580,30.000 100.800 C 30.000 101.020,29.764 101.200,29.475 101.200 C 29.187 101.200,28.564 101.560,28.092 102.000 C 27.620 102.440,27.131 102.800,27.006 102.800 C 26.540 102.800,23.200 106.399,23.200 106.901 C 23.200 107.188,22.840 107.683,22.400 108.000 C 21.960 108.317,21.600 108.724,21.600 108.905 C 21.600 109.086,21.240 109.620,20.800 110.092 C 20.360 110.564,20.000 111.187,20.000 111.475 C 20.000 111.764,19.820 112.000,19.600 112.000 C 19.380 112.000,19.200 112.360,19.200 112.800 C 19.200 113.240,19.020 113.600,18.800 113.600 C 18.580 113.600,18.400 113.960,18.400 114.400 C 18.400 114.840,18.220 115.200,18.000 115.200 C 17.780 115.200,17.600 115.639,17.600 116.176 C 17.600 116.713,17.420 117.264,17.200 117.400 C 16.980 117.536,16.800 117.997,16.800 118.424 C 16.800 118.851,16.620 119.200,16.400 119.200 C 16.180 119.200,16.000 119.740,16.000 120.400 C 16.000 121.060,15.820 121.600,15.600 121.600 C 15.380 121.600,15.200 122.320,15.200 123.200 C 15.200 124.080,15.020 124.800,14.800 124.800 C 14.580 124.800,14.400 125.419,14.400 126.176 C 14.400 126.933,14.220 127.664,14.000 127.800 C 13.780 127.936,13.600 128.847,13.600 129.824 C 13.600 130.801,13.420 131.600,13.200 131.600 C 12.975 131.600,12.800 132.725,12.800 134.176 C 12.800 135.593,12.620 136.864,12.400 137.000 C 11.854 137.337,11.854 162.663,12.400 163.000 C 12.620 163.136,12.800 164.407,12.800 165.824 C 12.800 167.275,12.975 168.400,13.200 168.400 C 13.420 168.400,13.600 169.199,13.600 170.176 C 13.600 171.153,13.780 172.064,14.000 172.200 C 14.220 172.336,14.400 173.067,14.400 173.824 C 14.400 174.581,14.580 175.200,14.800 175.200 C 15.020 175.200,15.200 175.819,15.200 176.576 C 15.200 177.333,15.380 178.064,15.600 178.200 C 15.820 178.336,16.000 178.977,16.000 179.624 C 16.000 180.271,16.180 180.800,16.400 180.800 C 16.620 180.800,16.800 181.160,16.800 181.600 C 16.800 182.040,16.980 182.400,17.200 182.400 C 17.420 182.400,17.600 182.940,17.600 183.600 C 17.600 184.260,17.780 184.800,18.000 184.800 C 18.220 184.800,18.400 185.160,18.400 185.600 C 18.400 186.040,18.580 186.400,18.800 186.400 C 19.020 186.400,19.200 186.760,19.200 187.200 C 19.200 187.640,19.380 188.000,19.600 188.000 C 19.820 188.000,20.000 188.270,20.000 188.600 C 20.000 188.930,20.180 189.200,20.400 189.200 C 20.620 189.200,20.800 189.470,20.800 189.800 C 20.800 190.130,20.980 190.400,21.200 190.400 C 21.420 190.400,21.600 190.585,21.600 190.811 C 21.600 191.036,22.365 192.018,23.300 192.992 C 24.235 193.967,25.630 195.484,26.400 196.363 C 27.170 197.243,28.115 197.971,28.500 197.982 C 28.885 197.992,29.201 198.135,29.203 198.300 C 29.207 198.659,31.144 199.600,31.880 199.600 C 32.166 199.600,32.400 199.780,32.400 200.000 C 32.400 200.253,35.267 200.400,40.200 200.400 C 45.133 200.400,48.000 200.253,48.000 200.000 C 48.000 199.753,50.067 199.600,53.400 199.600 C 56.733 199.600,58.800 199.447,58.800 199.200 C 58.800 198.952,60.925 198.800,64.376 198.800 C 67.663 198.800,70.054 198.636,70.200 198.400 C 70.345 198.166,72.663 198.000,75.800 198.000 C 78.937 198.000,81.255 197.834,81.400 197.600 C 81.545 197.365,83.871 197.200,87.024 197.200 C 90.341 197.200,92.400 197.047,92.400 196.800 C 92.400 196.552,94.533 196.400,98.000 196.400 C 101.467 196.400,103.600 196.248,103.600 196.000 C 103.600 195.752,105.725 195.600,109.176 195.600 C 112.463 195.600,114.854 195.436,115.000 195.200 C 115.136 194.980,115.957 194.800,116.824 194.800 L 118.400 194.800 118.400 205.400 C 118.400 212.200,118.543 216.000,118.800 216.000 C 119.020 216.000,119.200 216.284,119.200 216.631 C 119.200 216.979,119.881 217.924,120.713 218.731 C 121.545 219.539,122.665 220.830,123.202 221.600 C 123.739 222.370,124.516 223.360,124.930 223.800 C 125.343 224.240,126.158 225.230,126.739 226.000 C 127.321 226.770,128.255 227.850,128.814 228.400 C 129.373 228.950,130.267 230.030,130.800 230.800 C 131.333 231.570,132.233 232.650,132.800 233.200 C 133.367 233.750,134.268 234.823,134.803 235.584 C 135.790 236.991,137.266 238.665,140.267 241.782 C 141.185 242.735,142.205 244.037,142.536 244.676 C 142.867 245.316,143.871 246.595,144.769 247.520 C 145.666 248.444,146.400 249.359,146.400 249.552 C 146.400 249.745,147.120 250.645,148.000 251.552 L 149.600 253.201 149.600 264.000 L 149.600 274.800 143.400 274.800 L 137.200 274.800 137.200 331.400 L 137.200 388.000 209.400 388.000 L 281.600 388.000 281.600 331.400 L 281.600 274.800 275.400 274.800 L 269.200 274.800 269.200 264.000 L 269.200 253.201 270.800 251.552 C 271.680 250.645,272.400 249.739,272.400 249.538 C 272.400 249.338,272.985 248.559,273.700 247.808 C 275.541 245.875,276.000 245.287,276.000 244.857 C 276.000 244.650,276.900 243.562,278.000 242.439 C 279.100 241.315,280.000 240.293,280.000 240.167 C 280.000 240.040,280.681 239.276,281.513 238.469 C 282.345 237.661,283.463 236.370,283.997 235.600 C 284.532 234.830,285.433 233.750,286.000 233.200 C 286.567 232.650,287.473 231.570,288.012 230.800 C 288.552 230.030,289.580 228.777,290.297 228.017 C 291.014 227.256,291.600 226.450,291.600 226.225 C 291.600 226.001,292.283 225.184,293.118 224.409 C 293.952 223.634,295.072 222.370,295.605 221.600 C 296.138 220.830,297.255 219.539,298.087 218.731 C 298.919 217.924,299.600 216.979,299.600 216.631 C 299.600 216.284,299.780 216.000,300.000 216.000 C 300.257 216.000,300.400 212.200,300.400 205.400 C 300.400 198.600,300.543 194.800,300.800 194.800 C 301.020 194.800,301.200 194.980,301.200 195.200 C 301.200 195.442,302.933 195.600,305.600 195.600 C 308.267 195.600,310.000 195.758,310.000 196.000 C 310.000 196.241,311.659 196.400,314.176 196.400 C 316.529 196.400,318.461 196.575,318.600 196.800 C 318.740 197.027,320.737 197.200,323.224 197.200 C 325.875 197.200,327.600 197.358,327.600 197.600 C 327.600 197.842,329.333 198.000,332.000 198.000 C 334.667 198.000,336.400 198.158,336.400 198.400 C 336.400 198.641,338.059 198.800,340.576 198.800 C 342.929 198.800,344.861 198.975,345.000 199.200 C 345.139 199.425,347.071 199.600,349.424 199.600 C 351.941 199.600,353.600 199.759,353.600 200.000 C 353.600 200.251,356.192 200.400,360.576 200.400 C 364.796 200.400,367.650 200.242,367.800 200.000 C 367.936 199.780,368.487 199.600,369.024 199.600 C 369.561 199.600,370.000 199.420,370.000 199.200 C 370.000 198.980,370.236 198.800,370.525 198.800 C 370.813 198.800,371.436 198.440,371.908 198.000 C 372.380 197.560,372.869 197.200,372.994 197.200 C 373.460 197.200,376.800 193.601,376.800 193.099 C 376.800 192.812,377.160 192.317,377.600 192.000 C 378.040 191.683,378.400 191.276,378.400 191.095 C 378.400 190.914,378.760 190.380,379.200 189.908 C 379.640 189.436,380.000 188.813,380.000 188.525 C 380.000 188.236,380.180 188.000,380.400 188.000 C 380.620 188.000,380.800 187.640,380.800 187.200 C 380.800 186.760,380.980 186.400,381.200 186.400 C 381.420 186.400,381.600 186.040,381.600 185.600 C 381.600 185.160,381.780 184.800,382.000 184.800 C 382.220 184.800,382.400 184.361,382.400 183.824 C 382.400 183.287,382.580 182.736,382.800 182.600 C 383.020 182.464,383.200 182.003,383.200 181.576 C 383.200 181.149,383.380 180.800,383.600 180.800 C 383.820 180.800,384.000 180.260,384.000 179.600 C 384.000 178.940,384.180 178.400,384.400 178.400 C 384.620 178.400,384.800 177.680,384.800 176.800 C 384.800 175.920,384.980 175.200,385.200 175.200 C 385.420 175.200,385.600 174.581,385.600 173.824 C 385.600 173.067,385.780 172.336,386.000 172.200 C 386.220 172.064,386.400 171.153,386.400 170.176 C 386.400 169.199,386.580 168.400,386.800 168.400 C 387.025 168.400,387.200 167.275,387.200 165.824 C 387.200 164.407,387.380 163.136,387.600 163.000 C 388.146 162.663,388.146 137.337,387.600 137.000 C 387.380 136.864,387.200 135.593,387.200 134.176 C 387.200 132.725,387.025 131.600,386.800 131.600 C 386.580 131.600,386.400 130.801,386.400 129.824 C 386.400 128.847,386.220 127.936,386.000 127.800 C 385.780 127.664,385.600 126.933,385.600 126.176 C 385.600 125.419,385.420 124.800,385.200 124.800 C 384.980 124.800,384.800 124.080,384.800 123.200 C 384.800 122.320,384.620 121.600,384.400 121.600 C 384.180 121.600,384.000 121.060,384.000 120.400 C 384.000 119.740,383.820 119.200,383.600 119.200 C 383.380 119.200,383.200 118.851,383.200 118.424 C 383.200 117.997,383.020 117.536,382.800 117.400 C 382.580 117.264,382.400 116.713,382.400 116.176 C 382.400 115.639,382.220 115.200,382.000 115.200 C 381.780 115.200,381.600 114.840,381.600 114.400 C 381.600 113.960,381.420 113.600,381.200 113.600 C 380.980 113.600,380.800 113.240,380.800 112.800 C 380.800 112.360,380.620 112.000,380.400 112.000 C 380.180 112.000,380.000 111.764,380.000 111.475 C 380.000 111.187,379.640 110.564,379.200 110.092 C 378.760 109.620,378.400 109.086,378.400 108.905 C 378.400 108.724,378.040 108.317,377.600 108.000 C 377.160 107.683,376.800 107.188,376.800 106.901 C 376.800 106.399,373.460 102.800,372.994 102.800 C 372.869 102.800,372.380 102.440,371.908 102.000 C 371.436 101.560,370.813 101.200,370.525 101.200 C 370.236 101.200,370.000 101.020,370.000 100.800 C 370.000 100.580,369.561 100.400,369.024 100.400 C 368.487 100.400,367.936 100.220,367.800 100.000 C 367.466 99.460,351.334 99.460,351.000 100.000 C 350.855 100.234,348.537 100.400,345.400 100.400 C 342.263 100.400,339.945 100.566,339.800 100.800 C 339.656 101.033,337.404 101.200,334.400 101.200 C 331.396 101.200,329.144 101.367,329.000 101.600 C 328.855 101.835,326.529 102.000,323.376 102.000 C 320.059 102.000,318.000 102.153,318.000 102.400 C 318.000 102.647,315.941 102.800,312.624 102.800 C 309.471 102.800,307.145 102.965,307.000 103.200 C 306.856 103.433,304.604 103.600,301.600 103.600 C 298.596 103.600,296.344 103.767,296.200 104.000 C 296.055 104.234,293.737 104.400,290.600 104.400 C 287.463 104.400,285.145 104.566,285.000 104.800 C 284.864 105.020,284.043 105.200,283.176 105.200 L 281.600 105.200 281.600 102.400 C 281.600 100.800,281.429 99.600,281.200 99.600 C 280.980 99.600,280.800 99.060,280.800 98.400 C 280.800 97.740,280.620 97.200,280.400 97.200 C 280.180 97.200,280.000 96.660,280.000 96.000 C 280.000 95.340,279.864 94.800,279.698 94.800 C 279.531 94.800,279.138 94.215,278.825 93.500 C 278.511 92.785,277.747 91.723,277.127 91.140 C 276.507 90.556,276.000 89.875,276.000 89.626 C 276.000 89.111,273.397 86.400,272.902 86.400 C 272.723 86.400,272.317 86.040,272.000 85.600 C 271.683 85.160,271.193 84.800,270.912 84.800 C 270.630 84.800,270.400 84.620,270.400 84.400 C 270.400 84.180,270.130 84.000,269.800 84.000 C 269.470 84.000,269.200 83.820,269.200 83.600 C 269.200 83.380,268.840 83.200,268.400 83.200 C 267.960 83.200,267.600 83.020,267.600 82.800 C 267.600 82.580,267.161 82.400,266.624 82.400 C 266.087 82.400,265.536 82.220,265.400 82.000 C 265.264 81.780,264.623 81.600,263.976 81.600 C 263.329 81.600,262.800 81.420,262.800 81.200 C 262.800 80.949,260.333 80.800,256.200 80.800 C 252.067 80.800,249.600 80.949,249.600 81.200 C 249.600 81.420,249.060 81.600,248.400 81.600 C 247.740 81.600,247.200 81.780,247.200 82.000 C 247.200 82.220,246.876 82.400,246.480 82.400 C 245.586 82.400,243.607 83.294,243.603 83.700 C 243.601 83.865,243.330 84.000,243.000 84.000 C 242.670 84.000,242.400 84.180,242.400 84.400 C 242.400 84.620,242.208 84.800,241.974 84.800 C 241.740 84.800,240.660 85.712,239.574 86.827 L 237.600 88.853 235.626 86.827 C 234.540 85.712,233.453 84.800,233.209 84.800 C 232.966 84.800,232.380 84.440,231.908 84.000 C 231.436 83.560,230.813 83.200,230.525 83.200 C 230.236 83.200,230.000 83.020,230.000 82.800 C 230.000 82.580,229.460 82.400,228.800 82.400 C 228.140 82.400,227.600 82.220,227.600 82.000 C 227.600 81.780,227.060 81.600,226.400 81.600 C 225.740 81.600,225.200 81.420,225.200 81.200 C 225.200 80.950,222.808 80.800,218.824 80.800 C 215.004 80.800,212.348 80.960,212.200 81.200 C 212.064 81.420,211.524 81.600,211.000 81.600 C 210.476 81.600,209.936 81.780,209.800 82.000 C 209.664 82.220,209.113 82.400,208.576 82.400 C 208.039 82.400,207.600 82.580,207.600 82.800 C 207.600 83.020,207.280 83.200,206.888 83.200 C 206.497 83.200,205.917 83.560,205.600 84.000 C 205.283 84.440,204.781 84.800,204.486 84.800 C 204.190 84.800,203.060 85.712,201.974 86.827 L 200.000 88.853 198.026 86.827 C 196.940 85.712,195.810 84.800,195.514 84.800 C 195.219 84.800,194.717 84.440,194.400 84.000 C 194.083 83.560,193.503 83.200,193.112 83.200 C 192.720 83.200,192.400 83.020,192.400 82.800 C 192.400 82.580,191.961 82.400,191.424 82.400 C 190.887 82.400,190.336 82.220,190.200 82.000 C 190.064 81.780,189.524 81.600,189.000 81.600 C 188.476 81.600,187.936 81.420,187.800 81.200 C 187.652 80.960,184.996 80.800,181.176 80.800 C 177.192 80.800,174.800 80.950,174.800 81.200 C 174.800 81.420,174.260 81.600,173.600 81.600 C 172.940 81.600,172.400 81.780,172.400 82.000 C 172.400 82.220,171.860 82.400,171.200 82.400 C 170.540 82.400,170.000 82.580,170.000 82.800 C 170.000 83.020,169.680 83.200,169.288 83.200 C 168.897 83.200,168.317 83.560,168.000 84.000 C 167.683 84.440,167.181 84.800,166.886 84.800 C 166.590 84.800,165.460 85.712,164.374 86.827 L 162.400 88.853 160.426 86.827 C 159.340 85.712,158.260 84.800,158.026 84.800 C 157.792 84.800,157.600 84.620,157.600 84.400 C 157.600 84.180,157.330 84.000,157.000 84.000 C 156.670 84.000,156.400 83.820,156.400 83.600 C 156.400 83.380,156.040 83.200,155.600 83.200 C 155.160 83.200,154.800 83.020,154.800 82.800 C 154.800 82.580,154.350 82.400,153.800 82.400 C 153.250 82.400,152.800 82.220,152.800 82.000 C 152.800 81.780,152.260 81.600,151.600 81.600 C 150.940 81.600,150.400 81.420,150.400 81.200 C 150.400 80.949,147.933 80.800,143.800 80.800 C 139.667 80.800,137.200 80.949,137.200 81.200 C 137.200 81.420,136.671 81.600,136.024 81.600 C 135.377 81.600,134.736 81.780,134.600 82.000 C 134.464 82.220,133.913 82.400,133.376 82.400 C 132.839 82.400,132.400 82.580,132.400 82.800 C 132.400 83.020,132.040 83.200,131.600 83.200 C 131.160 83.200,130.800 83.380,130.800 83.600 C 130.800 83.820,130.530 84.000,130.200 84.000 C 129.870 84.000,129.600 84.180,129.600 84.400 C 129.600 84.620,129.370 84.800,129.088 84.800 C 128.807 84.800,128.317 85.160,128.000 85.600 C 127.683 86.040,127.277 86.400,127.098 86.400 C 126.623 86.400,124.000 89.101,124.000 89.590 C 124.000 89.820,123.466 90.566,122.814 91.249 C 122.161 91.932,121.397 93.010,121.116 93.645 C 120.835 94.280,120.469 94.800,120.302 94.800 C 120.136 94.800,120.000 95.340,120.000 96.000 C 120.000 96.660,119.820 97.200,119.600 97.200 C 119.380 97.200,119.200 97.740,119.200 98.400 C 119.200 99.060,119.020 99.600,118.800 99.600 C 118.571 99.600,118.400 100.800,118.400 102.400 L 118.400 105.200 116.400 105.200 C 115.300 105.200,114.400 105.020,114.400 104.800 C 114.400 104.553,112.333 104.400,109.000 104.400 C 105.667 104.400,103.600 104.247,103.600 104.000 C 103.600 103.752,101.467 103.600,98.000 103.600 C 94.533 103.600,92.400 103.448,92.400 103.200 C 92.400 102.953,90.333 102.800,87.000 102.800 C 83.667 102.800,81.600 102.647,81.600 102.400 C 81.600 102.153,79.541 102.000,76.224 102.000 C 73.071 102.000,70.745 101.835,70.600 101.600 C 70.455 101.365,68.129 101.200,64.976 101.200 C 61.659 101.200,59.600 101.047,59.600 100.800 C 59.600 100.567,60.933 100.400,62.800 100.400 C 64.667 100.400,66.000 100.233,66.000 100.000 C 66.000 99.780,66.360 99.600,66.800 99.600 C 67.240 99.600,67.600 99.420,67.600 99.200 C 67.600 98.980,67.960 98.800,68.400 98.800 C 68.840 98.800,69.200 98.620,69.200 98.400 C 69.200 98.180,69.560 98.000,70.000 98.000 C 70.440 98.000,70.800 97.820,70.800 97.600 C 70.800 97.380,71.160 97.200,71.600 97.200 C 72.040 97.200,72.400 97.054,72.400 96.875 C 72.400 96.696,73.030 96.302,73.800 96.000 C 74.570 95.698,75.200 95.304,75.200 95.125 C 75.200 94.946,75.560 94.800,76.000 94.800 C 76.440 94.800,76.800 94.620,76.800 94.400 C 76.800 94.180,77.160 94.000,77.600 94.000 C 78.040 94.000,78.400 93.820,78.400 93.600 C 78.400 93.380,78.760 93.200,79.200 93.200 C 79.640 93.200,80.000 93.020,80.000 92.800 C 80.000 92.580,80.360 92.400,80.800 92.400 C 81.240 92.400,81.600 92.220,81.600 92.000 C 81.600 91.780,81.877 91.600,82.216 91.600 C 82.555 91.600,83.896 91.047,85.196 90.370 L 87.558 89.141 91.079 90.870 C 93.016 91.822,94.660 92.735,94.733 92.900 C 94.807 93.065,95.212 93.200,95.633 93.200 C 96.055 93.200,96.400 93.380,96.400 93.600 C 96.400 93.820,96.760 94.000,97.200 94.000 C 97.640 94.000,98.000 94.180,98.000 94.400 C 98.000 94.620,98.360 94.800,98.800 94.800 C 99.240 94.800,99.600 94.980,99.600 95.200 C 99.600 95.420,99.960 95.600,100.400 95.600 C 100.840 95.600,101.200 95.780,101.200 96.000 C 101.200 96.220,101.560 96.400,102.000 96.400 C 102.440 96.400,102.800 96.580,102.800 96.800 C 102.800 97.020,103.160 97.200,103.600 97.200 C 104.040 97.200,104.400 97.380,104.400 97.600 C 104.400 97.820,104.760 98.000,105.200 98.000 C 105.640 98.000,106.000 98.180,106.000 98.400 C 106.000 98.620,106.360 98.800,106.800 98.800 C 107.240 98.800,107.601 98.935,107.603 99.100 C 107.605 99.265,108.091 99.625,108.683 99.900 C 109.840 100.437,116.000 100.601,116.000 100.095 C 116.000 99.927,116.405 99.612,116.900 99.395 C 117.395 99.178,117.978 98.595,118.195 98.100 C 118.412 97.605,118.727 97.200,118.895 97.200 C 119.063 97.200,119.200 95.490,119.200 93.400 C 119.200 91.133,119.039 89.600,118.800 89.600 C 118.580 89.600,118.400 88.880,118.400 88.000 C 118.400 87.120,118.220 86.400,118.000 86.400 C 117.780 86.400,117.600 85.680,117.600 84.800 C 117.600 83.920,117.420 83.200,117.200 83.200 C 116.980 83.200,116.800 82.480,116.800 81.600 C 116.800 80.720,116.620 80.000,116.400 80.000 C 116.180 80.000,116.000 79.280,116.000 78.400 C 116.000 77.520,115.820 76.800,115.600 76.800 C 115.380 76.800,115.200 76.170,115.200 75.400 C 115.200 74.630,115.020 74.000,114.800 74.000 C 114.580 74.000,114.400 73.368,114.400 72.595 C 114.400 71.118,116.095 69.198,127.100 58.207 C 129.135 56.175,130.800 54.307,130.800 54.056 C 130.800 53.805,130.980 53.600,131.200 53.600 C 131.437 53.600,131.600 52.133,131.600 50.000 C 131.600 47.867,131.437 46.400,131.200 46.400 C 130.980 46.400,130.800 46.170,130.800 45.888 C 130.800 45.607,130.418 45.112,129.951 44.788 C 129.484 44.465,128.867 43.975,128.580 43.700 C 128.292 43.425,127.624 43.200,127.095 43.200 C 126.566 43.200,125.999 43.065,125.835 42.900 C 125.498 42.562,121.576 41.704,118.700 41.339 C 117.655 41.207,116.800 40.941,116.800 40.749 C 116.800 40.557,116.080 40.400,115.200 40.400 C 114.320 40.400,113.600 40.220,113.600 40.000 C 113.600 39.780,112.880 39.600,112.000 39.600 C 111.120 39.600,110.400 39.420,110.400 39.200 C 110.400 38.980,109.781 38.800,109.024 38.800 C 108.267 38.800,107.536 38.620,107.400 38.400 C 107.264 38.180,106.791 38.000,106.348 38.000 C 105.386 38.000,104.400 37.103,104.400 36.229 C 104.400 35.883,104.220 35.600,104.000 35.600 C 103.780 35.600,103.600 35.240,103.600 34.800 C 103.600 34.360,103.420 34.000,103.200 34.000 C 102.980 34.000,102.800 33.640,102.800 33.200 C 102.800 32.760,102.620 32.400,102.400 32.400 C 102.180 32.400,102.000 32.040,102.000 31.600 C 102.000 31.160,101.820 30.800,101.600 30.800 C 101.380 30.800,101.200 30.440,101.200 30.000 C 101.200 29.560,101.020 29.200,100.800 29.200 C 100.580 29.200,100.400 28.840,100.400 28.400 C 100.400 27.960,100.220 27.600,100.000 27.600 C 99.780 27.600,99.600 27.240,99.600 26.800 C 99.600 26.360,99.420 26.000,99.200 26.000 C 98.980 26.000,98.800 25.730,98.800 25.400 C 98.800 25.070,98.620 24.800,98.400 24.800 C 98.180 24.800,98.000 24.440,98.000 24.000 C 98.000 23.560,97.820 23.200,97.600 23.200 C 97.380 23.200,97.200 22.840,97.200 22.400 C 97.200 21.960,97.020 21.600,96.800 21.600 C 96.580 21.600,96.400 21.240,96.400 20.800 C 96.400 20.360,96.220 20.000,96.000 20.000 C 95.780 20.000,95.600 19.640,95.600 19.200 C 95.600 18.760,95.420 18.400,95.200 18.400 C 94.980 18.400,94.800 18.040,94.800 17.600 C 94.800 17.160,94.620 16.800,94.400 16.800 C 94.180 16.800,94.000 16.512,94.000 16.160 C 94.000 15.469,91.935 13.311,90.497 12.500 C 89.443 11.905,84.800 11.824,84.800 12.400 M89.882 37.000 C 90.883 38.980,92.422 42.040,93.304 43.800 C 95.933 49.051,96.018 49.104,105.600 51.396 C 109.010 52.212,112.069 53.029,112.398 53.211 C 112.861 53.467,111.671 54.885,107.146 59.471 C 99.289 67.433,99.521 66.725,101.795 75.752 C 102.563 78.799,103.092 81.452,102.971 81.647 C 102.850 81.842,99.768 80.472,96.121 78.601 C 87.346 74.100,87.782 74.099,78.913 78.628 C 71.029 82.655,71.424 82.904,73.373 75.141 C 75.511 66.626,75.731 67.257,67.852 59.284 C 63.456 54.835,62.333 53.489,62.786 53.209 C 63.106 53.011,66.165 52.178,69.584 51.356 C 79.622 48.945,79.005 49.462,84.000 39.292 C 87.502 32.164,87.449 32.184,89.882 37.000 M148.895 94.569 C 151.584 95.799,154.183 98.402,155.429 101.112 L 156.400 103.224 156.400 125.000 L 156.400 146.777 155.461 148.889 C 151.025 158.867,136.721 158.954,132.057 149.032 C 131.213 147.237,131.200 146.868,131.200 124.991 L 131.200 102.773 132.235 100.731 C 135.366 94.553,142.827 91.793,148.895 94.569 M185.000 94.000 C 185.136 94.220,185.552 94.404,185.924 94.410 C 187.901 94.439,192.345 99.083,193.460 102.285 C 194.200 104.408,194.230 145.514,193.494 147.600 C 189.620 158.580,174.779 159.580,169.683 149.205 L 168.600 147.000 168.600 125.000 L 168.600 103.000 169.722 100.714 C 170.831 98.457,173.981 95.200,175.056 95.200 C 175.355 95.200,175.600 95.057,175.600 94.883 C 175.600 93.905,184.429 93.076,185.000 94.000 M222.705 93.953 C 223.087 94.148,223.919 94.551,224.552 94.849 C 226.628 95.826,229.072 98.331,230.247 100.687 L 231.400 103.000 231.508 129.700 L 231.617 156.400 223.604 156.400 C 212.669 156.400,208.933 154.477,206.506 147.600 C 205.770 145.514,205.800 104.408,206.540 102.285 C 207.655 99.083,212.099 94.439,214.076 94.410 C 214.448 94.404,214.864 94.220,215.000 94.000 C 215.305 93.506,221.750 93.467,222.705 93.953 M261.438 94.634 C 264.125 95.864,266.432 98.100,267.803 100.806 L 268.800 102.773 268.800 129.587 L 268.800 156.400 256.200 156.400 L 243.600 156.400 243.600 129.795 C 243.600 115.162,243.759 102.877,243.953 102.495 C 244.148 102.113,244.548 101.260,244.842 100.600 C 245.534 99.052,249.052 95.533,250.600 94.843 C 251.260 94.548,252.070 94.159,252.400 93.977 C 253.840 93.185,259.106 93.568,261.438 94.634 M40.483 114.105 C 48.851 122.355,52.505 148.058,48.216 168.507 C 46.125 178.480,41.054 187.600,37.602 187.600 C 34.029 187.600,28.808 178.399,26.819 168.600 C 26.551 167.280,26.254 165.840,26.160 165.400 C 24.509 157.745,24.509 142.255,26.160 134.600 C 26.254 134.160,26.551 132.720,26.819 131.400 C 29.694 117.235,35.807 109.496,40.483 114.105 M364.887 113.262 C 366.942 114.726,369.101 118.499,371.601 125.000 C 372.201 126.559,373.338 131.114,373.949 134.400 C 375.063 140.392,375.276 143.731,375.063 151.800 C 374.854 159.712,374.588 162.635,373.645 167.400 C 372.940 170.963,372.745 171.786,372.415 172.600 C 372.237 173.040,371.859 174.210,371.575 175.200 C 370.303 179.632,366.873 185.736,364.943 187.000 C 363.806 187.745,361.013 187.709,352.000 186.832 C 348.389 186.481,345.183 186.189,334.200 185.211 C 331.560 184.976,327.600 184.611,325.400 184.400 C 323.200 184.190,317.980 183.725,313.800 183.368 C 309.620 183.011,304.850 182.602,303.200 182.459 L 300.200 182.200 300.000 171.800 C 299.709 156.686,299.487 156.400,287.989 156.400 L 281.200 156.400 281.200 137.259 L 281.200 118.118 284.700 117.841 C 289.744 117.442,298.138 116.831,304.600 116.393 C 307.680 116.184,312.630 115.833,315.600 115.613 C 334.211 114.235,338.474 113.936,349.345 113.247 C 352.834 113.025,355.789 112.744,355.911 112.622 C 356.610 111.923,363.718 112.430,364.887 113.262 M65.600 114.234 C 67.030 114.352,70.630 114.615,73.600 114.817 C 76.570 115.019,81.430 115.365,84.400 115.586 C 87.370 115.806,92.320 116.162,95.400 116.377 C 106.720 117.167,112.673 117.600,115.700 117.855 L 118.800 118.115 118.801 131.158 C 118.801 147.080,119.103 149.410,121.917 155.200 C 123.039 157.508,123.342 157.947,125.580 160.499 C 133.243 169.242,151.350 170.962,158.411 163.619 C 158.527 163.499,159.452 162.617,160.467 161.660 L 162.312 159.920 165.184 162.332 C 173.358 169.195,185.606 170.338,193.686 164.990 C 194.509 164.446,195.279 164.000,195.396 164.000 C 195.514 164.000,196.552 163.102,197.705 162.004 C 200.220 159.609,199.745 159.611,202.324 161.977 C 205.000 164.433,208.945 166.519,212.805 167.521 C 215.819 168.303,216.591 169.006,215.663 170.124 C 214.957 170.975,213.691 174.906,213.190 177.800 C 212.924 179.340,212.646 180.817,212.572 181.083 C 212.469 181.456,201.596 181.604,164.919 181.730 C 134.200 181.836,115.774 182.052,112.800 182.340 C 110.270 182.586,104.150 183.064,99.200 183.402 C 94.250 183.740,87.770 184.196,84.800 184.416 C 62.223 186.089,55.874 186.434,55.452 186.012 C 55.135 185.695,56.889 180.455,58.031 178.305 C 58.234 177.923,58.400 177.169,58.400 176.629 C 58.400 176.089,58.559 175.549,58.754 175.429 C 58.949 175.308,59.210 174.713,59.336 174.105 C 59.461 173.497,59.762 172.100,60.003 171.000 C 62.584 159.247,63.048 145.341,61.204 135.000 C 60.515 131.130,59.911 128.190,59.604 127.200 C 59.433 126.650,59.071 125.390,58.801 124.400 C 58.530 123.410,58.161 122.240,57.981 121.800 C 57.800 121.360,57.258 119.830,56.776 118.400 C 56.293 116.970,55.722 115.577,55.505 115.305 C 54.164 113.622,55.937 113.434,65.600 114.234 M354.302 125.431 C 354.098 125.635,352.568 125.843,345.600 126.614 C 344.610 126.723,342.540 126.981,341.000 127.186 C 339.460 127.391,336.580 127.756,334.600 127.997 C 332.620 128.238,329.830 128.600,328.400 128.800 C 326.970 129.001,324.180 129.359,322.200 129.595 C 320.220 129.832,317.250 130.199,315.600 130.413 C 313.950 130.626,311.026 130.998,309.102 131.241 C 307.027 131.503,305.702 131.841,305.845 132.073 C 305.978 132.288,306.260 134.114,306.472 136.132 C 307.305 144.057,307.228 143.676,307.940 143.389 C 308.303 143.243,310.220 142.951,312.200 142.740 C 314.180 142.528,317.060 142.192,318.600 141.993 C 320.140 141.793,322.840 141.443,324.600 141.215 C 327.600 140.826,330.353 140.488,337.600 139.619 C 339.250 139.421,342.310 139.030,344.400 138.749 C 346.490 138.468,349.090 138.230,350.177 138.219 L 352.154 138.200 352.653 140.800 C 353.275 144.049,353.327 148.346,352.782 151.433 C 352.038 155.644,351.475 158.185,351.135 158.871 C 350.640 159.871,351.162 160.800,352.219 160.800 C 352.733 160.800,353.264 160.980,353.400 161.200 C 353.536 161.420,354.076 161.600,354.600 161.600 C 355.124 161.600,355.664 161.780,355.800 162.000 C 355.936 162.220,356.476 162.400,357.000 162.400 C 357.524 162.400,358.064 162.580,358.200 162.800 C 358.336 163.020,358.876 163.200,359.400 163.200 C 359.924 163.200,360.464 163.380,360.600 163.600 C 361.121 164.442,362.400 164.033,362.400 163.024 C 362.400 162.487,362.556 161.951,362.746 161.833 C 362.936 161.716,363.200 161.030,363.332 160.310 C 363.464 159.589,363.856 157.740,364.204 156.200 C 365.402 150.884,365.070 140.136,363.536 134.600 C 361.822 128.415,360.884 126.784,358.451 125.765 C 357.090 125.195,354.729 125.005,354.302 125.431 M75.200 162.400 L 75.200 168.400 81.200 168.400 L 87.200 168.400 87.200 162.400 L 87.200 156.400 81.200 156.400 L 75.200 156.400 75.200 162.400 M287.504 189.693 C 287.603 210.002,287.578 210.819,286.838 211.693 C 286.415 212.192,284.490 214.490,282.559 216.800 C 280.629 219.110,278.949 221.090,278.825 221.200 C 278.701 221.310,277.917 222.251,277.081 223.290 C 276.246 224.330,275.345 225.410,275.080 225.690 C 274.814 225.971,273.793 227.190,272.812 228.400 C 269.911 231.976,263.448 239.784,263.209 240.000 C 263.088 240.110,262.181 241.190,261.195 242.400 C 260.208 243.610,259.121 244.911,258.779 245.290 C 256.454 247.876,256.400 248.264,256.400 262.238 L 256.400 275.200 209.400 275.200 L 162.400 275.200 162.400 262.396 C 162.400 248.653,162.284 247.797,160.083 245.357 C 159.707 244.941,158.592 243.610,157.605 242.400 C 156.619 241.190,155.713 240.110,155.592 240.000 C 155.472 239.890,153.154 237.100,150.440 233.800 C 147.727 230.500,145.123 227.348,144.653 226.796 C 144.184 226.244,142.990 224.804,142.000 223.597 C 141.010 222.390,139.726 220.862,139.147 220.201 C 138.568 219.541,136.887 217.560,135.413 215.800 C 133.938 214.040,132.387 212.194,131.966 211.697 C 131.263 210.868,131.200 210.084,131.200 202.197 L 131.200 193.600 173.795 193.600 L 216.390 193.600 217.350 195.120 C 219.743 198.912,224.437 202.608,229.000 204.294 C 233.182 205.839,235.666 205.999,255.500 206.000 L 274.800 206.000 274.800 200.000 L 274.800 194.000 254.994 194.000 C 235.701 194.000,232.000 193.791,232.000 192.703 C 232.000 192.536,231.718 192.400,231.374 192.400 C 230.557 192.400,226.756 188.543,226.053 187.000 C 225.753 186.340,225.348 185.487,225.153 185.105 C 223.766 182.378,225.254 175.931,228.016 172.702 C 231.697 168.401,231.397 168.438,261.600 168.526 L 287.400 168.600 287.504 189.693 M164.400 217.808 C 162.750 219.051,160.884 220.457,160.254 220.933 C 159.623 221.410,158.904 221.928,158.655 222.085 C 158.162 222.395,159.141 224.555,160.374 225.881 C 160.742 226.277,163.192 229.480,165.820 233.000 C 168.447 236.520,170.696 239.490,170.818 239.600 C 170.939 239.710,171.471 240.430,172.000 241.200 C 172.529 241.970,173.069 242.690,173.200 242.800 C 175.039 244.342,175.200 245.242,175.200 253.962 L 175.200 262.400 181.200 262.400 L 187.200 262.400 187.184 252.100 L 187.167 241.800 186.084 240.352 C 185.488 239.556,183.463 236.856,181.584 234.352 C 179.705 231.849,177.727 229.170,177.189 228.400 C 176.651 227.630,175.988 226.730,175.715 226.400 C 175.442 226.070,173.788 223.910,172.040 221.600 C 170.292 219.290,168.533 216.984,168.131 216.475 L 167.400 215.550 164.400 217.808 M268.710 293.700 L 268.820 300.000 209.410 300.000 L 150.000 300.000 150.000 293.867 C 150.000 290.493,150.121 287.613,150.268 287.465 C 150.415 287.318,177.100 287.243,209.568 287.299 L 268.600 287.400 268.710 293.700 M268.800 343.800 L 268.800 374.800 209.400 374.800 L 150.000 374.800 150.000 343.800 L 150.000 312.800 209.400 312.800 L 268.800 312.800 268.800 343.800 M218.890 356.300 L 219.000 362.600 225.000 362.600 L 231.000 362.600 231.110 356.300 L 231.220 350.000 225.000 350.000 L 218.780 350.000 218.890 356.300 M243.690 356.300 L 243.800 362.600 250.000 362.600 L 256.200 362.600 256.310 356.300 L 256.420 350.000 250.000 350.000 L 243.580 350.000 243.690 356.300 " stroke="none" fill="#040404" fill-rule="evenodd"></path><path id="path3" d="M83.677 39.890 C 79.814 47.692,79.526 48.118,77.400 49.174 C 76.520 49.611,76.034 49.975,76.320 49.984 C 78.585 50.054,80.185 48.068,83.961 40.500 C 85.745 36.925,87.359 34.000,87.548 34.000 C 87.737 34.000,89.359 36.929,91.154 40.508 C 95.005 48.189,96.443 50.051,98.474 49.982 C 98.763 49.973,98.370 49.631,97.600 49.224 C 95.722 48.231,95.186 47.553,93.305 43.800 C 88.785 34.782,88.022 33.391,87.532 33.290 C 87.200 33.221,85.753 35.699,83.677 39.890 M68.520 51.561 C 65.396 52.367,62.707 53.160,62.545 53.321 C 62.383 53.483,64.782 56.177,67.876 59.308 C 75.728 67.254,75.511 66.628,73.373 75.141 C 71.424 82.904,71.029 82.655,78.913 78.628 C 87.782 74.099,87.346 74.100,96.121 78.601 C 103.475 82.373,103.458 82.373,102.536 78.638 C 101.750 75.452,101.318 75.395,102.029 78.571 C 102.303 79.800,102.440 80.894,102.331 81.002 C 102.149 81.184,97.304 78.796,92.000 75.912 C 90.321 74.999,89.279 74.714,87.600 74.710 C 85.303 74.704,85.774 74.502,75.489 79.891 C 73.998 80.672,72.708 81.241,72.623 81.155 C 72.407 80.937,73.282 76.927,74.561 72.280 C 75.956 67.215,75.545 66.337,68.548 59.428 C 63.311 54.257,62.517 53.200,63.872 53.200 C 64.241 53.200,65.096 53.024,65.772 52.808 C 66.447 52.593,68.870 51.968,71.155 51.420 C 75.155 50.461,76.578 49.948,74.967 50.047 C 74.545 50.073,71.644 50.754,68.520 51.561 M99.200 50.139 C 99.200 50.215,102.035 50.968,105.500 51.811 C 108.965 52.654,111.881 53.408,111.981 53.486 C 112.080 53.564,109.625 56.187,106.524 59.314 C 100.178 65.714,100.000 65.972,100.000 68.754 C 100.000 70.605,100.914 75.048,101.394 75.527 C 101.748 75.882,101.622 74.924,101.000 72.535 C 99.614 67.216,99.716 67.000,107.146 59.471 C 111.661 54.896,112.860 53.467,112.398 53.214 C 111.063 52.483,99.200 49.719,99.200 50.139 M140.000 94.018 C 139.562 94.315,139.724 94.352,140.600 94.156 C 142.071 93.827,142.390 93.598,141.367 93.606 C 140.945 93.609,140.330 93.795,140.000 94.018 M146.000 94.000 C 147.542 94.494,148.364 94.494,147.600 94.000 C 147.270 93.787,146.550 93.627,146.000 93.646 L 145.000 93.680 146.000 94.000 M177.600 94.006 C 177.178 94.282,177.415 94.323,178.400 94.142 C 180.125 93.825,180.451 93.598,179.167 93.606 C 178.635 93.609,177.930 93.789,177.600 94.006 M182.433 93.743 C 182.876 94.122,185.217 94.351,184.996 93.994 C 184.862 93.777,184.193 93.600,183.510 93.600 C 182.826 93.600,182.342 93.664,182.433 93.743 M214.990 94.016 C 214.821 94.289,215.123 94.338,215.866 94.160 C 217.399 93.792,217.544 93.600,216.290 93.600 C 215.717 93.600,215.132 93.787,214.990 94.016 M220.433 93.744 C 220.905 94.150,222.843 94.393,222.610 94.016 C 222.468 93.787,221.883 93.600,221.310 93.600 C 220.736 93.600,220.342 93.665,220.433 93.744 M252.604 93.994 C 252.452 94.240,252.855 94.294,253.680 94.137 C 255.449 93.800,255.601 93.600,254.090 93.600 C 253.407 93.600,252.738 93.777,252.604 93.994 M258.400 94.000 C 259.942 94.494,260.764 94.494,260.000 94.000 C 259.670 93.787,258.950 93.627,258.400 93.646 L 257.400 93.680 258.400 94.000 M223.233 94.549 C 223.325 94.631,224.030 95.002,224.800 95.373 L 226.200 96.048 225.200 95.233 C 224.414 94.592,222.562 93.948,223.233 94.549 M136.229 95.809 C 135.805 96.129,135.535 96.468,135.629 96.561 C 135.723 96.655,136.225 96.387,136.744 95.966 C 137.838 95.079,137.379 94.939,136.229 95.809 M151.085 96.222 C 151.792 96.779,152.917 97.898,153.585 98.709 C 154.253 99.519,154.800 99.998,154.800 99.773 C 154.800 99.224,150.773 95.199,150.229 95.204 C 149.993 95.207,150.378 95.665,151.085 96.222 M172.690 96.804 C 170.925 98.358,168.772 101.911,168.827 103.179 C 168.843 103.533,169.035 103.370,169.276 102.800 C 170.679 99.472,171.589 98.111,173.334 96.732 C 174.400 95.889,175.101 95.200,174.892 95.200 C 174.683 95.200,173.692 95.922,172.690 96.804 M262.824 95.713 C 265.954 98.157,266.647 99.010,267.821 101.865 C 268.349 103.149,268.785 103.879,268.791 103.487 C 268.817 101.510,264.134 95.174,262.676 95.213 C 262.384 95.221,262.441 95.413,262.824 95.713 M190.000 97.400 C 190.746 98.170,191.447 98.800,191.557 98.800 C 191.667 98.800,191.146 98.170,190.400 97.400 C 189.654 96.630,188.953 96.000,188.843 96.000 C 188.733 96.000,189.254 96.630,190.000 97.400 M209.578 97.500 L 208.200 99.000 209.700 97.622 C 211.096 96.338,211.384 96.000,211.078 96.000 C 211.012 96.000,210.337 96.675,209.578 97.500 M227.640 97.377 C 228.211 98.049,228.976 99.045,229.340 99.589 C 229.703 100.133,230.000 100.375,230.000 100.128 C 230.000 99.880,229.235 98.884,228.300 97.915 C 227.365 96.946,227.068 96.704,227.640 97.377 M247.178 97.500 L 245.800 99.000 247.300 97.622 C 248.696 96.338,248.984 96.000,248.678 96.000 C 248.612 96.000,247.937 96.675,247.178 97.500 M133.891 98.074 C 132.758 99.591,131.875 101.200,132.176 101.200 C 132.288 101.200,132.639 100.705,132.956 100.100 C 133.273 99.495,133.925 98.583,134.406 98.074 C 134.887 97.564,135.191 97.057,135.081 96.947 C 134.971 96.837,134.435 97.344,133.891 98.074 M192.227 100.400 C 193.052 102.112,193.203 102.294,193.191 101.567 C 193.186 101.255,192.815 100.550,192.367 100.000 L 191.552 99.000 192.227 100.400 M207.421 100.224 C 207.052 100.788,206.811 101.432,206.885 101.656 C 206.960 101.881,207.329 101.420,207.704 100.632 C 208.503 98.956,208.374 98.770,207.421 100.224 M230.467 102.020 C 230.701 102.692,230.967 103.167,231.057 103.076 C 231.256 102.878,230.501 100.800,230.231 100.800 C 230.127 100.800,230.233 101.349,230.467 102.020 M131.473 102.153 C 131.323 102.545,131.211 103.166,131.225 103.533 C 131.242 103.975,131.381 103.874,131.637 103.234 C 131.849 102.703,131.961 102.082,131.885 101.854 C 131.809 101.627,131.624 101.761,131.473 102.153 M155.844 103.000 C 156.173 104.471,156.402 104.790,156.394 103.767 C 156.391 103.345,156.205 102.730,155.982 102.400 C 155.685 101.962,155.648 102.124,155.844 103.000 M193.400 125.000 C 193.400 137.388,193.532 147.316,193.694 147.062 C 193.856 146.808,193.988 136.880,193.988 125.000 C 193.988 113.120,193.856 103.192,193.694 102.938 C 193.532 102.684,193.400 112.612,193.400 125.000 M206.243 103.033 C 205.893 103.943,205.955 146.509,206.306 147.062 C 206.468 147.316,206.600 137.371,206.600 124.962 C 206.600 112.553,206.574 102.400,206.543 102.400 C 206.511 102.400,206.376 102.685,206.243 103.033 M243.867 102.667 C 243.720 102.813,243.618 103.488,243.641 104.167 L 243.682 105.400 244.010 104.003 C 244.353 102.547,244.317 102.216,243.867 102.667 M231.389 130.000 C 231.389 144.630,231.439 150.615,231.500 143.300 C 231.561 135.985,231.561 124.015,231.500 116.700 C 231.439 109.385,231.389 115.370,231.389 130.000 M168.586 125.000 C 168.586 136.220,168.637 140.868,168.700 135.328 C 168.762 129.788,168.762 120.608,168.700 114.928 C 168.637 109.248,168.586 113.780,168.586 125.000 M354.600 112.800 L 353.000 113.086 354.600 113.100 C 355.480 113.107,357.280 112.979,358.600 112.815 L 361.000 112.518 358.600 112.516 C 357.280 112.514,355.480 112.642,354.600 112.800 M364.503 113.463 C 365.325 114.048,366.557 115.398,367.240 116.463 C 368.638 118.641,369.229 119.081,368.123 117.119 C 367.208 115.498,364.183 112.400,363.515 112.400 C 363.237 112.400,363.682 112.878,364.503 113.463 M343.600 113.619 C 342.783 113.802,343.783 113.842,346.000 113.716 C 348.090 113.596,349.875 113.431,349.967 113.349 C 350.270 113.077,345.026 113.299,343.600 113.619 M55.334 114.227 C 55.202 114.572,55.288 115.048,55.525 115.285 C 55.832 115.592,55.893 115.478,55.738 114.886 C 55.556 114.188,55.734 114.030,56.861 113.892 L 58.200 113.728 56.887 113.664 C 56.021 113.622,55.493 113.813,55.334 114.227 M61.633 114.152 C 61.725 114.236,63.600 114.402,65.800 114.521 C 68.630 114.674,69.215 114.640,67.800 114.404 C 65.743 114.061,61.336 113.881,61.633 114.152 M332.200 114.400 L 330.200 114.674 332.000 114.690 C 332.990 114.699,334.970 114.575,336.400 114.414 L 339.000 114.122 336.600 114.124 C 335.280 114.125,333.300 114.249,332.200 114.400 M75.200 115.217 C 76.410 115.384,78.210 115.515,79.200 115.507 L 81.000 115.493 79.000 115.182 C 77.900 115.010,76.100 114.880,75.000 114.891 L 73.000 114.913 75.200 115.217 M321.200 115.200 L 319.400 115.480 321.000 115.497 C 321.880 115.506,323.680 115.379,325.000 115.215 L 327.400 114.918 325.200 114.919 C 323.990 114.920,322.190 115.046,321.200 115.200 M86.000 116.017 C 87.210 116.184,89.010 116.315,90.000 116.307 L 91.800 116.293 89.800 115.982 C 88.700 115.810,86.900 115.680,85.800 115.691 L 83.800 115.713 86.000 116.017 M310.400 116.000 L 308.600 116.280 310.200 116.297 C 311.080 116.306,312.880 116.179,314.200 116.015 L 316.600 115.718 314.400 115.719 C 313.190 115.720,311.390 115.846,310.400 116.000 M97.200 116.814 C 98.630 116.975,100.700 117.100,101.800 117.092 C 103.689 117.079,103.655 117.062,101.200 116.786 C 99.770 116.625,97.700 116.500,96.600 116.508 C 94.711 116.521,94.745 116.538,97.200 116.814 M298.800 116.800 C 296.634 117.065,296.628 117.070,298.400 117.088 C 299.390 117.098,301.370 116.975,302.800 116.814 L 305.400 116.522 303.200 116.526 C 301.990 116.529,300.010 116.652,298.800 116.800 M109.000 117.615 C 110.320 117.779,112.120 117.907,113.000 117.900 C 114.374 117.889,114.289 117.844,112.400 117.583 C 111.190 117.416,109.390 117.288,108.400 117.298 C 106.756 117.316,106.808 117.343,109.000 117.615 M287.800 117.600 L 285.400 117.866 287.400 117.889 C 288.500 117.902,290.480 117.779,291.800 117.615 L 294.200 117.318 292.200 117.326 C 291.100 117.331,289.120 117.454,287.800 117.600 M56.831 118.200 C 56.806 118.735,57.783 121.517,58.114 121.847 C 58.258 121.991,58.219 121.589,58.028 120.954 C 57.525 119.281,56.854 117.735,56.831 118.200 M59.206 125.833 C 59.209 126.255,59.395 126.870,59.618 127.200 C 59.915 127.638,59.952 127.476,59.756 126.600 C 59.427 125.129,59.198 124.810,59.206 125.833 M351.200 125.600 L 349.400 125.880 351.000 125.900 C 351.880 125.911,353.050 125.776,353.600 125.600 C 354.863 125.195,353.802 125.195,351.200 125.600 M344.800 126.400 L 343.000 126.680 344.800 126.712 C 345.790 126.729,346.960 126.589,347.400 126.400 L 348.200 126.056 347.400 126.088 C 346.960 126.106,345.790 126.246,344.800 126.400 M338.200 127.200 L 336.200 127.474 338.000 127.490 C 338.990 127.498,340.340 127.368,341.000 127.200 C 342.577 126.799,341.125 126.799,338.200 127.200 M331.800 128.000 L 329.800 128.274 331.600 128.290 C 332.590 128.298,333.940 128.168,334.600 128.000 C 336.177 127.599,334.725 127.599,331.800 128.000 M60.068 129.000 C 60.062 129.440,60.211 130.160,60.400 130.600 C 60.838 131.619,60.838 130.568,60.400 129.200 C 60.143 128.396,60.077 128.357,60.068 129.000 M325.800 128.800 L 323.800 129.074 325.600 129.097 C 326.590 129.110,327.850 128.976,328.400 128.800 C 329.644 128.401,328.706 128.401,325.800 128.800 M318.105 129.887 C 318.714 129.979,319.614 129.977,320.105 129.882 C 320.597 129.787,320.100 129.711,319.000 129.714 C 317.900 129.717,317.497 129.795,318.105 129.887 M312.800 130.400 L 310.600 130.670 312.600 130.687 C 313.700 130.697,315.140 130.568,315.800 130.400 C 317.356 130.004,316.031 130.004,312.800 130.400 M373.044 131.400 C 373.373 132.871,373.602 133.190,373.594 132.167 C 373.591 131.745,373.405 131.130,373.182 130.800 C 372.885 130.362,372.848 130.524,373.044 131.400 M305.663 132.600 C 305.654 133.040,305.795 134.120,305.977 135.000 L 306.308 136.600 306.314 135.200 C 306.317 134.430,306.176 133.350,306.000 132.800 C 305.741 131.991,305.677 131.953,305.663 132.600 M60.828 133.233 C 60.844 133.765,61.019 134.560,61.219 135.000 C 61.471 135.558,61.507 135.315,61.338 134.200 C 61.055 132.343,60.787 131.836,60.828 133.233 M373.873 135.600 C 374.004 136.590,374.176 137.475,374.256 137.567 C 374.557 137.914,374.328 135.364,373.990 134.600 C 373.753 134.066,373.714 134.398,373.873 135.600 M364.087 136.600 C 364.091 137.040,364.232 137.940,364.400 138.600 C 364.674 139.678,364.706 139.698,364.713 138.800 C 364.717 138.250,364.576 137.350,364.400 136.800 C 364.149 136.016,364.081 135.973,364.087 136.600 M25.693 137.600 C 25.693 138.370,25.775 138.685,25.876 138.300 C 25.976 137.915,25.976 137.285,25.876 136.900 C 25.775 136.515,25.693 136.830,25.693 137.600 M61.680 138.400 C 61.668 139.170,61.803 140.610,61.980 141.600 C 62.276 143.267,62.301 143.297,62.320 142.000 C 62.332 141.230,62.197 139.790,62.020 138.800 C 61.724 137.133,61.699 137.103,61.680 138.400 M349.993 138.285 C 350.980 138.378,351.939 138.668,352.124 138.928 C 352.357 139.254,352.411 139.215,352.299 138.800 C 352.185 138.378,351.554 138.187,350.169 138.157 L 348.200 138.114 349.993 138.285 M306.659 140.600 C 306.793 141.700,306.969 142.675,307.051 142.767 C 307.364 143.117,307.126 140.161,306.780 139.400 C 306.535 138.861,306.495 139.254,306.659 140.600 M342.905 139.087 C 343.514 139.179,344.414 139.177,344.905 139.082 C 345.397 138.987,344.900 138.911,343.800 138.914 C 342.700 138.917,342.297 138.995,342.905 139.087 M374.600 150.000 C 374.600 156.025,374.714 160.425,374.853 159.777 C 374.992 159.130,375.105 154.730,375.105 150.000 C 375.105 145.270,374.992 140.870,374.853 140.223 C 374.714 139.575,374.600 143.975,374.600 150.000 M334.400 139.997 C 333.819 140.181,334.573 140.225,336.200 140.101 C 337.740 139.984,339.075 139.823,339.167 139.744 C 339.488 139.466,335.389 139.683,334.400 139.997 M327.800 140.806 C 327.097 140.988,327.842 141.028,329.600 140.903 C 331.250 140.785,332.675 140.624,332.767 140.544 C 333.075 140.278,329.013 140.491,327.800 140.806 M352.600 146.400 C 352.600 149.565,352.714 151.625,352.853 150.977 C 352.992 150.330,353.105 148.270,353.105 146.400 C 353.105 144.530,352.992 142.470,352.853 141.823 C 352.714 141.175,352.600 143.235,352.600 146.400 M49.693 142.400 C 49.693 143.170,49.775 143.485,49.876 143.100 C 49.976 142.715,49.976 142.085,49.876 141.700 C 49.775 141.315,49.693 141.630,49.693 142.400 M321.600 141.597 C 321.019 141.781,321.773 141.825,323.400 141.701 C 324.940 141.584,326.275 141.423,326.367 141.344 C 326.688 141.066,322.589 141.283,321.600 141.597 M364.956 146.800 C 364.950 151.918,364.990 152.280,365.302 149.880 C 365.503 148.333,365.506 145.833,365.309 144.080 C 364.989 141.219,364.964 141.412,364.956 146.800 M315.400 142.414 C 314.878 142.648,315.363 142.688,316.800 142.532 C 318.010 142.400,319.075 142.226,319.167 142.146 C 319.521 141.836,316.157 142.075,315.400 142.414 M308.800 143.216 C 308.173 143.426,308.770 143.466,310.400 143.323 C 311.830 143.197,313.075 143.028,313.167 142.947 C 313.495 142.658,309.780 142.886,308.800 143.216 M24.963 150.000 C 24.963 153.630,25.023 155.115,25.098 153.300 C 25.172 151.485,25.172 148.515,25.098 146.700 C 25.023 144.885,24.963 146.370,24.963 150.000 M118.840 146.233 C 118.862 146.875,119.033 147.850,119.220 148.400 C 119.449 149.074,119.484 148.749,119.328 147.400 C 119.069 145.150,118.779 144.459,118.840 146.233 M131.234 146.600 C 131.222 147.040,131.387 147.670,131.600 148.000 C 132.114 148.795,132.114 147.796,131.600 146.600 L 131.256 145.800 131.234 146.600 M168.832 146.821 C 168.734 148.746,173.364 154.800,174.934 154.800 C 175.166 154.800,174.735 154.343,173.978 153.784 C 171.635 152.057,170.328 150.193,169.083 146.800 C 168.893 146.281,168.859 146.284,168.832 146.821 M192.286 149.510 L 191.573 151.000 192.377 150.000 C 192.820 149.450,193.186 148.775,193.191 148.500 C 193.205 147.733,193.060 147.895,192.286 149.510 M206.811 148.400 C 206.815 148.730,207.189 149.450,207.644 150.000 C 208.098 150.550,208.353 150.774,208.210 150.499 C 207.019 148.194,206.806 147.874,206.811 148.400 M154.269 150.317 C 153.647 151.325,153.433 151.904,153.795 151.604 C 154.474 151.041,155.759 148.819,155.529 148.605 C 155.458 148.539,154.891 149.309,154.269 150.317 M132.010 149.100 C 132.027 149.625,134.852 153.282,135.071 153.063 C 135.186 152.947,134.887 152.436,134.406 151.926 C 133.925 151.417,133.273 150.505,132.956 149.900 C 132.396 148.832,131.990 148.488,132.010 149.100 M189.978 152.700 L 188.600 154.200 190.100 152.822 C 190.925 152.063,191.600 151.388,191.600 151.322 C 191.600 151.016,191.262 151.304,189.978 152.700 M209.600 152.600 C 210.346 153.370,211.047 154.000,211.157 154.000 C 211.267 154.000,210.746 153.370,210.000 152.600 C 209.254 151.830,208.553 151.200,208.443 151.200 C 208.333 151.200,208.854 151.830,209.600 152.600 M152.176 152.839 C 152.027 153.081,151.081 153.801,150.074 154.439 C 149.067 155.078,148.414 155.599,148.622 155.599 C 149.461 155.595,153.738 152.424,152.924 152.409 C 152.662 152.404,152.325 152.598,152.176 152.839 M135.600 153.485 C 135.600 153.834,137.199 154.938,137.400 154.728 C 137.467 154.657,137.089 154.277,136.561 153.881 C 136.032 153.486,135.600 153.308,135.600 153.485 M351.850 154.850 C 351.517 156.517,351.840 156.840,352.200 155.200 C 352.352 154.509,352.393 153.859,352.291 153.758 C 352.189 153.656,351.991 154.147,351.850 154.850 M364.222 155.822 C 364.072 156.625,364.028 157.362,364.126 157.460 C 364.224 157.557,364.427 156.981,364.578 156.178 C 364.728 155.375,364.772 154.638,364.674 154.540 C 364.576 154.443,364.373 155.019,364.222 155.822 M139.800 156.000 C 139.936 156.220,140.442 156.387,140.924 156.372 C 141.769 156.345,141.771 156.331,141.000 156.000 C 139.899 155.527,139.508 155.527,139.800 156.000 M177.390 155.984 C 177.532 156.213,178.117 156.400,178.690 156.400 C 179.944 156.400,179.799 156.208,178.266 155.840 C 177.523 155.662,177.221 155.711,177.390 155.984 M183.800 156.000 L 183.000 156.344 183.800 156.366 C 184.240 156.378,184.870 156.213,185.200 156.000 C 185.995 155.486,184.996 155.486,183.800 156.000 M214.800 156.000 C 215.130 156.213,215.760 156.378,216.200 156.366 L 217.000 156.344 216.200 156.000 C 215.004 155.486,214.005 155.486,214.800 156.000 M49.693 157.600 C 49.693 158.370,49.775 158.685,49.876 158.300 C 49.976 157.915,49.976 157.285,49.876 156.900 C 49.775 156.515,49.693 156.830,49.693 157.600 M61.788 159.388 C 61.631 161.064,61.598 162.531,61.714 162.648 C 61.831 162.764,62.055 161.488,62.212 159.812 C 62.369 158.136,62.402 156.669,62.286 156.552 C 62.169 156.436,61.945 157.712,61.788 159.388 M87.200 162.400 L 87.200 168.400 81.211 168.400 L 75.221 168.400 75.094 162.600 L 74.967 156.799 74.983 162.700 L 75.000 168.600 81.300 168.710 L 87.600 168.820 87.600 162.610 C 87.600 159.195,87.510 156.400,87.400 156.400 C 87.290 156.400,87.200 159.100,87.200 162.400 M295.200 156.560 C 295.200 156.647,295.920 157.095,296.800 157.553 C 298.749 158.569,298.901 158.375,297.053 157.233 C 295.749 156.427,295.200 156.227,295.200 156.560 M363.429 159.429 C 363.281 160.015,363.238 160.572,363.332 160.666 C 363.427 160.760,363.624 160.358,363.771 159.771 C 363.919 159.185,363.962 158.628,363.868 158.534 C 363.773 158.440,363.576 158.842,363.429 159.429 M126.818 162.000 C 128.847 163.944,131.600 165.945,131.600 165.476 C 131.600 165.383,130.844 164.806,129.921 164.195 C 128.997 163.584,127.404 162.345,126.381 161.442 C 125.358 160.539,125.555 160.790,126.818 162.000 M160.300 161.831 C 159.255 162.828,158.400 163.762,158.400 163.907 C 158.400 164.052,159.298 163.286,160.395 162.205 L 162.390 160.240 163.695 161.420 L 165.000 162.600 163.825 161.300 C 162.371 159.691,162.576 159.660,160.300 161.831 M198.300 161.416 C 197.475 162.183,196.800 162.935,196.800 163.087 C 196.800 163.238,197.519 162.660,198.399 161.801 L 199.997 160.240 201.318 161.520 C 202.044 162.224,202.765 162.800,202.920 162.800 C 203.075 162.800,202.505 162.170,201.653 161.400 C 199.794 159.721,200.125 159.719,198.300 161.416 M25.693 162.400 C 25.693 163.170,25.775 163.485,25.876 163.100 C 25.976 162.715,25.976 162.085,25.876 161.700 C 25.775 161.315,25.693 161.630,25.693 162.400 M354.600 162.000 C 355.701 162.473,356.092 162.473,355.800 162.000 C 355.664 161.780,355.158 161.613,354.676 161.628 C 353.831 161.655,353.829 161.669,354.600 162.000 M374.059 163.200 C 374.020 163.750,373.889 164.650,373.767 165.200 C 373.576 166.062,373.608 166.102,373.997 165.491 C 374.246 165.102,374.377 164.202,374.289 163.491 C 374.164 162.487,374.113 162.422,374.059 163.200 M156.700 164.629 C 156.095 164.957,155.600 165.310,155.600 165.413 C 155.600 165.799,156.232 165.557,157.200 164.800 C 158.389 163.870,158.211 163.809,156.700 164.629 M194.000 164.833 L 193.000 165.648 194.300 165.014 C 195.015 164.665,195.600 164.294,195.600 164.190 C 195.600 163.792,194.963 164.048,194.000 164.833 M61.049 165.015 C 60.912 165.373,60.818 166.146,60.840 166.733 C 60.873 167.591,60.952 167.495,61.246 166.240 C 61.622 164.639,61.495 163.853,61.049 165.015 M206.000 165.015 C 206.000 165.306,210.044 167.253,210.376 167.123 C 210.548 167.055,209.633 166.515,208.344 165.922 C 207.055 165.329,206.000 164.921,206.000 165.015 M136.000 167.600 C 136.330 167.813,136.960 167.978,137.400 167.966 L 138.200 167.944 137.400 167.600 C 136.204 167.086,135.205 167.086,136.000 167.600 M173.800 167.600 C 174.240 167.789,174.870 167.944,175.200 167.944 C 175.578 167.944,175.504 167.817,175.000 167.600 C 174.560 167.411,173.930 167.256,173.600 167.256 C 173.222 167.256,173.296 167.383,173.800 167.600 M187.600 167.600 C 187.067 167.945,187.067 167.988,187.600 167.988 C 187.930 167.988,188.470 167.813,188.800 167.600 C 189.333 167.255,189.333 167.212,188.800 167.212 C 188.470 167.212,187.930 167.387,187.600 167.600 M211.600 167.600 C 211.930 167.813,212.560 167.978,213.000 167.966 L 213.800 167.944 213.000 167.600 C 211.804 167.086,210.805 167.086,211.600 167.600 M373.249 167.600 C 373.216 167.930,373.089 168.650,372.967 169.200 C 372.775 170.064,372.807 170.103,373.199 169.488 C 373.448 169.097,373.575 168.377,373.481 167.888 C 373.386 167.400,373.282 167.270,373.249 167.600 M139.275 168.460 C 139.784 168.603,141.730 168.720,143.600 168.720 C 145.470 168.720,147.414 168.603,147.920 168.460 C 148.427 168.317,146.480 168.200,143.596 168.200 C 140.711 168.200,138.767 168.317,139.275 168.460 M177.280 168.460 C 177.786 168.603,179.640 168.720,181.400 168.720 C 183.160 168.720,185.016 168.603,185.524 168.460 C 186.033 168.317,184.179 168.200,181.404 168.200 C 178.629 168.200,176.773 168.317,177.280 168.460 M214.900 168.276 C 215.701 168.485,215.827 169.613,215.127 170.313 C 214.866 170.574,214.746 170.879,214.859 170.993 C 215.226 171.360,216.114 169.274,215.866 168.627 C 215.733 168.282,215.304 168.021,214.913 168.046 C 214.245 168.090,214.244 168.104,214.900 168.276 M248.529 168.700 C 255.750 168.761,267.450 168.761,274.529 168.700 C 281.608 168.639,275.700 168.589,261.400 168.589 C 247.100 168.589,241.308 168.639,248.529 168.700 M60.249 169.415 C 60.112 169.773,60.018 170.456,60.041 170.933 C 60.067 171.481,60.203 171.286,60.410 170.403 C 60.760 168.916,60.665 168.333,60.249 169.415 M231.746 169.802 C 230.641 170.353,229.300 171.289,228.768 171.883 L 227.800 172.962 229.141 171.872 C 230.306 170.925,232.387 169.822,234.400 169.083 C 234.919 168.893,234.916 168.859,234.379 168.832 C 234.037 168.814,232.852 169.251,231.746 169.802 M372.446 171.067 C 372.421 171.324,372.284 171.864,372.141 172.267 C 371.940 172.836,371.994 172.897,372.379 172.542 C 372.652 172.291,372.789 171.751,372.684 171.342 C 372.579 170.934,372.472 170.810,372.446 171.067 M214.044 172.844 C 213.798 173.551,213.666 174.200,213.752 174.285 C 213.838 174.371,214.109 173.862,214.356 173.156 C 214.602 172.449,214.734 171.800,214.648 171.715 C 214.562 171.629,214.291 172.138,214.044 172.844 M59.449 173.015 C 59.312 173.373,59.215 173.966,59.234 174.333 C 59.253 174.700,59.427 174.469,59.621 173.820 C 59.998 172.558,59.865 171.933,59.449 173.015 M226.869 174.039 C 226.128 175.224,226.457 175.313,227.319 174.161 C 227.714 173.632,227.892 173.200,227.715 173.200 C 227.538 173.200,227.157 173.578,226.869 174.039 M213.040 176.440 C 212.893 177.357,212.852 178.185,212.947 178.280 C 213.042 178.376,213.246 177.710,213.400 176.800 C 213.554 175.890,213.596 175.062,213.493 174.960 C 213.390 174.857,213.187 175.523,213.040 176.440 M58.667 175.467 C 58.520 175.613,58.411 176.108,58.425 176.567 C 58.449 177.333,58.482 177.323,58.834 176.442 C 59.226 175.463,59.144 174.989,58.667 175.467 M225.049 177.815 C 224.912 178.173,224.823 179.036,224.850 179.733 C 224.892 180.787,224.950 180.698,225.199 179.200 C 225.517 177.286,225.459 176.748,225.049 177.815 M212.460 179.900 L 212.400 181.200 167.100 181.240 C 142.185 181.261,120.810 181.396,119.600 181.540 C 118.390 181.683,138.728 181.748,164.796 181.684 C 190.863 181.621,212.342 181.418,212.527 181.233 C 212.711 181.049,212.785 180.381,212.691 179.749 C 212.523 178.619,212.519 178.621,212.460 179.900 M56.216 182.830 C 54.970 186.005,55.133 186.552,57.249 186.293 L 58.600 186.128 57.100 186.064 C 55.318 185.988,55.323 186.020,56.622 182.824 C 57.183 181.441,57.572 180.239,57.486 180.152 C 57.399 180.066,56.828 181.271,56.216 182.830 M300.304 182.034 C 300.467 182.180,302.310 182.404,304.400 182.530 C 306.490 182.656,308.020 182.681,307.800 182.584 C 307.101 182.277,299.995 181.756,300.304 182.034 M367.894 182.903 L 367.188 184.200 367.994 183.256 C 368.680 182.452,369.046 181.594,368.700 181.603 C 368.645 181.604,368.282 182.189,367.894 182.903 M108.600 182.411 C 107.500 182.568,108.760 182.605,111.400 182.494 C 114.040 182.383,116.275 182.226,116.367 182.146 C 116.643 181.904,110.743 182.105,108.600 182.411 M224.800 183.310 C 224.800 184.103,224.969 184.857,225.176 184.985 C 225.401 185.124,225.459 184.609,225.320 183.709 C 225.010 181.700,224.800 181.539,224.800 183.310 M100.900 183.091 C 101.725 183.178,103.075 183.178,103.900 183.091 C 104.725 183.005,104.050 182.934,102.400 182.934 C 100.750 182.934,100.075 183.005,100.900 183.091 M310.307 183.090 C 311.026 183.179,312.106 183.177,312.707 183.086 C 313.308 182.995,312.720 182.922,311.400 182.924 C 310.080 182.926,309.588 183.001,310.307 183.090 M96.100 183.487 C 96.705 183.578,97.695 183.578,98.300 183.487 C 98.905 183.395,98.410 183.320,97.200 183.320 C 95.990 183.320,95.495 183.395,96.100 183.487 M314.700 183.482 C 315.195 183.578,316.005 183.578,316.500 183.482 C 316.995 183.387,316.590 183.309,315.600 183.309 C 314.610 183.309,314.205 183.387,314.700 183.482 M86.200 184.000 L 84.200 184.274 86.000 184.294 C 86.990 184.304,88.880 184.179,90.200 184.015 L 92.600 183.718 90.400 183.722 C 89.190 183.724,87.300 183.849,86.200 184.000 M321.400 184.018 C 322.500 184.190,324.030 184.322,324.800 184.312 C 325.933 184.297,325.818 184.234,324.200 183.982 C 323.100 183.810,321.570 183.678,320.800 183.688 C 319.667 183.703,319.782 183.766,321.400 184.018 M34.200 185.600 C 35.059 186.480,35.852 187.200,35.962 187.200 C 36.072 187.200,35.459 186.480,34.600 185.600 C 33.741 184.720,32.948 184.000,32.838 184.000 C 32.728 184.000,33.341 184.720,34.200 185.600 M75.200 184.800 L 73.000 185.070 75.000 185.091 C 76.100 185.103,78.080 184.979,79.400 184.815 L 81.800 184.518 79.600 184.524 C 78.390 184.528,76.410 184.652,75.200 184.800 M329.800 184.818 C 332.664 185.265,335.331 185.230,332.800 184.780 C 331.810 184.603,330.280 184.470,329.400 184.483 C 327.841 184.506,327.852 184.515,329.800 184.818 M365.381 186.065 C 363.861 187.665,363.851 187.695,365.101 186.837 C 366.179 186.097,367.568 184.400,367.095 184.400 C 367.022 184.400,366.251 185.149,365.381 186.065 M64.200 185.600 L 62.200 185.874 64.000 185.894 C 64.990 185.904,66.880 185.779,68.200 185.615 L 70.600 185.318 68.400 185.322 C 67.190 185.324,65.300 185.449,64.200 185.600 M338.800 185.617 C 340.010 185.784,341.720 185.913,342.600 185.904 C 343.983 185.890,343.901 185.846,342.000 185.583 C 340.790 185.416,339.080 185.287,338.200 185.296 C 336.817 185.310,336.899 185.354,338.800 185.617 M225.609 186.033 C 225.614 186.345,225.985 187.050,226.433 187.600 L 227.248 188.600 226.573 187.200 C 225.748 185.488,225.597 185.306,225.609 186.033 M347.800 186.423 C 348.680 186.605,350.120 186.740,351.000 186.724 C 352.567 186.694,352.559 186.687,350.600 186.382 C 347.756 185.939,345.612 185.970,347.800 186.423 M356.200 187.223 C 357.080 187.405,358.520 187.542,359.400 187.527 L 361.000 187.500 359.200 187.180 C 358.210 187.003,356.770 186.867,356.000 186.876 L 354.600 186.892 356.200 187.223 M228.400 190.200 C 229.146 190.970,229.847 191.600,229.957 191.600 C 230.067 191.600,229.546 190.970,228.800 190.200 C 228.054 189.430,227.353 188.800,227.243 188.800 C 227.133 188.800,227.654 189.430,228.400 190.200 M234.137 193.694 C 234.392 193.856,243.690 193.951,254.800 193.906 C 265.910 193.861,272.480 193.774,269.400 193.714 C 255.463 193.440,233.719 193.428,234.137 193.694 M216.304 194.454 C 218.304 196.906,218.734 197.257,217.585 195.500 C 216.902 194.455,216.178 193.600,215.976 193.600 C 215.773 193.600,215.921 193.984,216.304 194.454 M219.796 198.796 C 220.426 199.454,221.019 199.914,221.113 199.820 C 221.322 199.612,219.356 197.600,218.943 197.600 C 218.782 197.600,219.166 198.138,219.796 198.796 M222.689 201.103 C 224.020 202.277,227.204 204.130,227.456 203.877 C 227.535 203.799,227.104 203.488,226.499 203.186 C 225.895 202.884,224.500 202.036,223.400 201.302 C 221.612 200.108,221.537 200.087,222.689 201.103 M228.400 204.333 C 228.730 204.536,229.450 204.824,230.000 204.971 C 230.695 205.157,230.817 205.125,230.400 204.867 C 230.070 204.664,229.350 204.376,228.800 204.229 C 228.105 204.043,227.983 204.075,228.400 204.333 M232.200 205.600 C 232.860 205.768,233.850 205.905,234.400 205.905 C 235.292 205.905,235.270 205.872,234.200 205.600 C 233.540 205.432,232.550 205.295,232.000 205.295 C 231.108 205.295,231.130 205.328,232.200 205.600 M245.300 206.300 C 250.745 206.363,259.655 206.363,265.100 206.300 C 270.545 206.237,266.090 206.185,255.200 206.185 C 244.310 206.185,239.855 206.237,245.300 206.300 M132.478 212.300 C 132.809 212.685,134.637 214.853,136.540 217.117 C 138.443 219.381,140.000 221.130,140.000 221.004 C 140.000 220.665,132.403 211.600,132.119 211.600 C 131.985 211.600,132.147 211.915,132.478 212.300 M282.583 216.231 C 280.463 218.778,278.789 220.917,278.864 220.986 C 278.939 221.055,280.350 219.491,282.000 217.510 C 286.241 212.420,286.886 211.600,286.648 211.600 C 286.533 211.600,284.703 213.684,282.583 216.231 M164.370 217.421 C 162.737 218.643,161.220 219.842,161.000 220.086 C 160.453 220.693,162.973 218.965,165.353 217.102 C 167.257 215.611,167.328 215.591,168.153 216.286 L 169.000 217.000 168.238 216.100 C 167.308 215.001,167.858 214.813,164.370 217.421 M169.060 217.700 C 169.790 218.887,174.480 224.800,174.691 224.800 C 174.819 224.800,174.661 224.485,174.339 224.100 C 174.017 223.715,172.704 222.005,171.421 220.300 C 169.369 217.572,168.169 216.250,169.060 217.700 M159.057 221.385 C 157.841 222.357,157.833 223.431,159.034 224.428 C 159.488 224.805,159.460 224.613,158.918 223.646 C 158.288 222.521,158.274 222.318,158.800 221.993 C 160.247 221.100,160.565 220.832,160.388 220.658 C 160.285 220.555,159.686 220.883,159.057 221.385 M276.463 223.572 C 275.548 224.656,274.800 225.652,274.800 225.786 C 274.800 225.996,275.662 225.039,277.942 222.300 C 278.262 221.915,278.434 221.600,278.325 221.600 C 278.215 221.600,277.377 222.487,276.463 223.572 M142.801 224.600 C 143.351 225.260,143.845 225.875,143.900 225.967 C 143.955 226.058,144.088 226.045,144.196 225.938 C 144.304 225.830,143.809 225.215,143.097 224.571 L 141.803 223.400 142.801 224.600 M160.800 226.533 C 160.800 226.893,170.007 239.200,170.276 239.200 C 170.396 239.200,170.055 238.615,169.517 237.900 C 168.979 237.185,166.797 234.277,164.669 231.437 C 162.541 228.598,160.800 226.391,160.800 226.533 M147.672 230.500 C 148.645 231.655,150.781 234.220,152.419 236.200 C 154.057 238.180,155.490 239.890,155.604 240.000 C 155.718 240.110,156.619 241.190,157.605 242.400 C 158.592 243.610,159.707 244.940,160.082 245.356 C 160.457 245.772,161.123 246.852,161.562 247.756 C 162.001 248.660,162.369 249.110,162.380 248.756 C 162.413 247.707,146.995 228.400,146.125 228.400 C 146.003 228.400,146.699 229.345,147.672 230.500 M177.464 228.800 C 177.695 229.130,179.485 231.538,181.442 234.151 C 183.399 236.764,185.492 239.580,186.093 240.409 L 187.186 241.917 187.300 252.258 L 187.414 262.600 187.503 252.200 L 187.593 241.800 182.966 235.600 C 180.422 232.190,178.048 229.130,177.692 228.800 C 177.116 228.267,177.090 228.267,177.464 228.800 M271.549 229.500 C 269.677 231.557,266.998 234.964,267.487 234.666 C 267.755 234.503,269.072 233.026,270.413 231.384 C 272.848 228.404,273.441 227.420,271.549 229.500 M264.712 237.700 C 260.258 242.865,258.713 244.800,259.051 244.788 C 259.243 244.781,259.973 244.016,260.673 243.088 C 261.374 242.159,262.275 241.040,262.676 240.600 C 264.526 238.570,267.276 235.200,267.082 235.200 C 266.964 235.200,265.898 236.325,264.712 237.700 M171.191 240.788 C 172.428 242.524,173.025 242.734,171.932 241.048 C 171.419 240.257,170.853 239.608,170.673 239.605 C 170.493 239.602,170.726 240.135,171.191 240.788 M173.690 244.100 C 174.232 244.815,174.779 245.670,174.906 246.000 C 175.052 246.379,175.148 246.414,175.168 246.094 C 175.209 245.449,173.512 242.812,173.053 242.805 C 172.861 242.802,173.148 243.385,173.690 244.100 M257.913 245.900 C 257.039 246.903,256.297 248.430,256.558 248.692 C 256.681 248.814,256.905 248.574,257.056 248.157 C 257.207 247.741,257.673 246.905,258.092 246.300 C 258.948 245.065,258.844 244.833,257.913 245.900 M179.931 287.500 C 196.284 287.558,222.924 287.558,239.131 287.500 C 255.339 287.442,241.960 287.395,209.400 287.395 C 176.840 287.395,163.579 287.442,179.931 287.500 M150.190 343.800 C 150.190 360.960,150.240 367.922,150.300 359.270 C 150.360 350.619,150.360 336.579,150.300 328.070 C 150.240 319.562,150.190 326.640,150.190 343.800 M268.590 343.800 C 268.590 360.960,268.640 367.922,268.700 359.270 C 268.760 350.619,268.760 336.579,268.700 328.070 C 268.640 319.562,268.590 326.640,268.590 343.800 M218.400 356.200 C 218.400 359.830,218.535 362.800,218.700 362.801 C 218.865 362.801,218.946 359.921,218.881 356.401 L 218.762 350.000 225.000 350.000 L 231.238 350.000 231.119 356.401 C 231.054 359.921,231.135 362.801,231.300 362.801 C 231.465 362.800,231.600 359.830,231.600 356.200 L 231.600 349.600 225.000 349.600 L 218.400 349.600 218.400 356.200 M249.919 349.894 L 256.438 350.020 256.319 356.391 C 256.254 359.895,256.340 362.622,256.511 362.450 C 256.682 362.279,256.772 359.362,256.711 355.969 L 256.600 349.800 250.000 349.784 L 243.400 349.768 249.919 349.894 " stroke="none" fill="#6a372d" fill-rule="evenodd"></path><path id="path4" d="M83.829 40.742 C 79.462 49.464,79.484 49.446,70.600 51.567 C 68.620 52.039,66.447 52.600,65.772 52.813 C 65.096 53.026,64.241 53.200,63.872 53.200 C 62.517 53.200,63.311 54.257,68.548 59.428 C 75.545 66.337,75.956 67.215,74.561 72.280 C 73.250 77.045,72.401 80.931,72.623 81.155 C 72.708 81.241,73.998 80.672,75.489 79.891 C 85.774 74.502,85.303 74.704,87.600 74.710 C 89.279 74.714,90.321 74.999,92.000 75.912 C 97.286 78.787,102.149 81.184,102.329 81.004 C 102.532 80.802,101.744 77.111,100.637 73.080 C 99.041 67.267,99.346 66.553,106.524 59.314 C 109.625 56.187,112.080 53.567,111.981 53.492 C 111.881 53.418,109.370 52.764,106.400 52.041 C 95.017 49.267,95.865 49.906,91.198 40.595 C 89.379 36.968,87.737 34.000,87.548 34.000 C 87.359 34.000,85.686 37.034,83.829 40.742 M142.700 93.882 C 143.195 93.978,144.005 93.978,144.500 93.882 C 144.995 93.787,144.590 93.709,143.600 93.709 C 142.610 93.709,142.205 93.787,142.700 93.882 M180.500 93.876 C 180.885 93.976,181.515 93.976,181.900 93.876 C 182.285 93.775,181.970 93.693,181.200 93.693 C 180.430 93.693,180.115 93.775,180.500 93.876 M217.900 93.882 C 218.395 93.978,219.205 93.978,219.700 93.882 C 220.195 93.787,219.790 93.709,218.800 93.709 C 217.810 93.709,217.405 93.787,217.900 93.882 M255.700 93.876 C 256.085 93.976,256.715 93.976,257.100 93.876 C 257.485 93.775,257.170 93.693,256.400 93.693 C 255.630 93.693,255.315 93.775,255.700 93.876 M139.800 94.400 C 139.296 94.617,139.222 94.744,139.600 94.744 C 139.930 94.744,140.560 94.589,141.000 94.400 C 141.504 94.183,141.578 94.056,141.200 94.056 C 140.870 94.056,140.240 94.211,139.800 94.400 M176.115 94.979 C 173.959 95.983,170.384 99.191,170.421 100.089 C 170.433 100.370,170.748 100.156,171.121 99.613 C 172.653 97.388,176.300 94.809,177.938 94.794 C 178.302 94.791,178.870 94.613,179.200 94.400 C 180.468 93.581,178.206 94.005,176.115 94.979 M183.200 94.400 C 183.530 94.613,184.250 94.778,184.800 94.766 C 185.716 94.746,185.733 94.715,185.000 94.400 C 183.816 93.891,182.413 93.891,183.200 94.400 M252.600 94.400 L 251.800 94.744 252.600 94.766 C 253.040 94.778,253.670 94.613,254.000 94.400 C 254.795 93.886,253.796 93.886,252.600 94.400 M258.400 94.370 C 258.730 94.600,259.310 94.791,259.688 94.794 C 261.828 94.813,265.563 98.032,267.117 101.195 L 268.200 103.400 268.311 129.700 L 268.422 156.000 256.214 156.000 L 244.006 156.000 243.899 130.700 L 243.791 105.400 243.796 130.800 L 243.800 156.200 256.200 156.200 L 268.600 156.200 268.600 129.800 L 268.600 103.400 267.563 101.200 C 266.406 98.746,264.599 96.794,262.200 95.405 C 260.561 94.456,257.216 93.545,258.400 94.370 M137.500 95.429 C 136.005 96.240,136.096 96.578,137.600 95.800 C 138.260 95.459,138.800 95.094,138.800 94.990 C 138.800 94.732,138.757 94.747,137.500 95.429 M186.223 95.237 C 186.346 95.437,186.671 95.600,186.944 95.600 C 187.692 95.600,191.048 99.009,191.660 100.390 C 191.954 101.055,192.335 101.600,192.506 101.600 C 193.216 101.600,191.099 98.379,189.412 96.894 C 187.754 95.435,185.679 94.357,186.223 95.237 M249.989 95.460 C 247.530 97.103,244.355 100.888,244.943 101.477 C 245.072 101.605,245.356 101.242,245.574 100.668 C 246.047 99.425,249.853 95.600,250.617 95.600 C 250.912 95.600,251.264 95.420,251.400 95.200 C 251.774 94.595,251.098 94.720,249.989 95.460 M210.649 96.841 C 209.623 97.743,208.593 98.868,208.360 99.341 C 208.126 99.813,208.428 99.596,209.030 98.857 C 209.632 98.119,210.844 96.994,211.722 96.357 C 212.601 95.721,213.138 95.200,212.916 95.200 C 212.694 95.200,211.674 95.938,210.649 96.841 M225.400 95.852 C 225.620 96.045,226.520 96.832,227.399 97.601 L 228.998 99.000 227.799 97.666 C 227.140 96.932,226.240 96.145,225.800 95.917 C 225.360 95.689,225.180 95.660,225.400 95.852 M152.200 97.600 C 153.059 98.480,153.852 99.200,153.962 99.200 C 154.072 99.200,153.459 98.480,152.600 97.600 C 151.741 96.720,150.948 96.000,150.838 96.000 C 150.728 96.000,151.341 96.720,152.200 97.600 M154.956 101.773 C 155.420 102.955,155.871 103.854,155.958 103.770 C 156.173 103.562,154.814 100.056,154.425 99.815 C 154.253 99.709,154.492 100.590,154.956 101.773 M192.834 102.800 C 192.822 103.350,192.987 104.070,193.200 104.400 C 193.709 105.187,193.709 103.784,193.200 102.600 C 192.885 101.867,192.854 101.884,192.834 102.800 M206.629 103.029 C 206.481 103.615,206.438 104.172,206.532 104.266 C 206.627 104.360,206.824 103.958,206.971 103.371 C 207.119 102.785,207.162 102.228,207.068 102.134 C 206.973 102.040,206.776 102.442,206.629 103.029 M244.229 103.029 C 244.081 103.615,244.051 104.184,244.161 104.294 C 244.271 104.404,244.481 104.015,244.629 103.429 C 244.776 102.842,244.806 102.273,244.696 102.163 C 244.586 102.053,244.376 102.442,244.229 103.029 M230.434 102.800 C 230.446 103.130,230.611 103.760,230.800 104.200 L 231.144 105.000 231.166 104.200 C 231.178 103.760,231.013 103.130,230.800 102.800 C 230.455 102.267,230.415 102.267,230.434 102.800 M131.456 103.684 C 131.321 104.188,131.250 113.960,131.297 125.400 L 131.383 146.200 131.592 124.600 C 131.706 112.720,131.778 102.948,131.751 102.884 C 131.724 102.820,131.591 103.180,131.456 103.684 M168.993 103.700 C 168.000 107.730,169.169 150.164,170.244 149.090 C 170.365 148.968,170.225 148.448,169.932 147.934 C 169.507 147.188,169.400 142.563,169.400 124.900 C 169.400 112.745,169.358 102.800,169.308 102.800 C 169.257 102.800,169.115 103.205,168.993 103.700 M156.091 124.800 C 156.035 136.130,155.896 145.850,155.783 146.400 L 155.577 147.400 155.992 146.455 C 156.266 145.833,156.371 138.479,156.300 124.855 L 156.193 104.200 156.091 124.800 M193.088 145.733 C 192.930 146.136,192.811 146.856,192.825 147.333 C 192.849 148.156,192.871 148.150,193.240 147.225 C 193.454 146.689,193.573 145.969,193.503 145.625 C 193.399 145.111,193.325 145.130,193.088 145.733 M206.456 146.000 C 206.456 146.330,206.611 146.960,206.800 147.400 C 207.017 147.904,207.144 147.978,207.144 147.600 C 207.144 147.270,206.989 146.640,206.800 146.200 C 206.583 145.696,206.456 145.622,206.456 146.000 M170.413 149.876 C 170.329 153.014,179.486 157.173,183.894 156.000 C 187.253 155.106,192.730 150.997,191.801 150.068 C 191.657 149.924,191.354 150.139,191.127 150.545 C 187.152 157.647,176.469 157.464,171.025 150.200 C 170.695 149.760,170.420 149.614,170.413 149.876 M208.360 150.659 C 208.850 151.650,212.316 154.800,212.916 154.800 C 213.138 154.800,212.601 154.279,211.722 153.643 C 210.844 153.006,209.632 151.881,209.030 151.143 C 208.428 150.404,208.126 150.187,208.360 150.659 M152.181 152.471 C 150.856 153.871,150.803 153.984,151.851 153.171 C 152.932 152.331,154.246 150.800,153.885 150.800 C 153.817 150.800,153.051 151.552,152.181 152.471 M136.046 153.540 C 137.012 154.290,139.177 155.503,138.790 155.077 C 138.422 154.674,135.575 152.800,135.328 152.800 C 135.198 152.800,135.521 153.133,136.046 153.540 M141.115 156.072 C 141.492 156.221,142.700 156.344,143.800 156.344 C 144.900 156.344,146.108 156.221,146.485 156.072 C 146.862 155.922,145.654 155.800,143.800 155.800 C 141.946 155.800,140.738 155.922,141.115 156.072 M220.300 156.298 C 222.335 156.371,225.665 156.371,227.700 156.298 C 229.735 156.225,228.070 156.166,224.000 156.166 C 219.930 156.166,218.265 156.225,220.300 156.298 M234.200 169.200 C 233.181 169.638,234.232 169.638,235.600 169.200 C 236.404 168.943,236.443 168.877,235.800 168.868 C 235.360 168.862,234.640 169.011,234.200 169.200 M287.200 189.528 L 287.200 210.256 285.763 212.028 L 284.326 213.800 285.963 212.049 L 287.600 210.297 287.600 189.549 C 287.600 178.137,287.510 168.800,287.400 168.800 C 287.290 168.800,287.200 178.128,287.200 189.528 M228.868 172.127 C 227.647 173.427,227.782 173.782,229.024 172.539 C 229.588 171.976,229.978 171.445,229.892 171.359 C 229.807 171.273,229.346 171.619,228.868 172.127 M225.429 177.829 C 225.281 178.415,225.238 178.972,225.332 179.066 C 225.427 179.160,225.624 178.758,225.771 178.171 C 225.919 177.585,225.962 177.028,225.868 176.934 C 225.773 176.840,225.576 177.242,225.429 177.829 M226.804 187.699 C 226.797 188.192,229.668 191.211,230.566 191.653 C 231.024 191.880,230.822 191.593,230.116 191.016 C 229.410 190.439,228.377 189.390,227.821 188.684 C 227.264 187.978,226.807 187.534,226.804 187.699 M131.467 193.867 C 131.320 194.013,131.200 197.770,131.200 202.215 L 131.200 210.297 132.837 212.049 L 134.474 213.800 133.037 212.028 L 131.600 210.256 131.600 202.130 L 131.600 194.004 173.700 193.900 L 215.800 193.796 173.767 193.698 C 150.648 193.644,131.613 193.720,131.467 193.867 M274.963 200.000 C 274.963 203.630,275.023 205.115,275.098 203.300 C 275.172 201.485,275.172 198.515,275.098 196.700 C 275.023 194.885,274.963 196.370,274.963 200.000 M219.162 198.526 C 219.782 199.304,222.800 201.768,222.800 201.496 C 222.800 201.402,221.855 200.537,220.700 199.574 C 219.545 198.610,218.853 198.139,219.162 198.526 M232.600 205.990 C 233.364 206.328,235.914 206.557,235.567 206.256 C 235.475 206.176,234.590 206.004,233.600 205.873 C 232.398 205.714,232.066 205.753,232.600 205.990 M164.785 216.829 L 163.400 218.058 164.900 216.981 C 166.226 216.030,166.657 215.600,166.285 215.600 C 166.222 215.600,165.547 216.153,164.785 216.829 M137.749 218.116 C 138.820 219.372,139.782 220.400,139.886 220.400 C 140.154 220.400,136.823 216.461,136.264 216.117 C 136.009 215.961,136.677 216.860,137.749 218.116 M281.568 217.100 C 279.209 219.743,278.674 220.400,278.882 220.400 C 279.003 220.400,279.949 219.410,280.982 218.200 C 282.896 215.960,283.355 215.098,281.568 217.100 M169.775 218.132 C 170.391 218.939,170.976 219.600,171.075 219.600 C 171.353 219.600,169.621 217.260,169.109 216.944 C 168.859 216.789,169.159 217.324,169.775 218.132 M161.585 219.229 L 160.200 220.458 161.700 219.381 C 163.026 218.430,163.457 218.000,163.085 218.000 C 163.022 218.000,162.347 218.553,161.585 219.229 M141.818 223.000 C 142.851 224.210,143.774 225.200,143.867 225.200 C 144.183 225.200,140.603 220.845,140.269 220.822 C 140.087 220.810,140.784 221.790,141.818 223.000 M275.634 224.153 L 274.669 225.400 275.813 224.312 C 276.443 223.714,276.877 223.153,276.779 223.065 C 276.680 222.977,276.165 223.467,275.634 224.153 M174.575 224.532 C 175.191 225.339,175.776 226.000,175.875 226.000 C 176.153 226.000,174.421 223.660,173.909 223.344 C 173.659 223.189,173.959 223.724,174.575 224.532 M159.191 225.188 C 159.657 225.841,160.242 226.502,160.491 226.656 C 160.741 226.811,160.441 226.276,159.825 225.468 C 158.488 223.715,157.984 223.492,159.191 225.188 M144.408 225.833 C 144.413 226.035,145.241 227.100,146.249 228.200 L 148.081 230.200 146.360 228.000 C 145.413 226.790,144.585 225.725,144.519 225.633 C 144.454 225.542,144.404 225.632,144.408 225.833 M273.568 226.700 C 271.209 229.343,270.674 230.000,270.882 230.000 C 271.003 230.000,271.949 229.010,272.982 227.800 C 274.896 225.560,275.355 224.698,273.568 226.700 M176.975 227.732 C 177.591 228.539,178.176 229.200,178.275 229.200 C 178.553 229.200,176.821 226.860,176.309 226.544 C 176.059 226.389,176.359 226.924,176.975 227.732 M161.591 228.388 C 162.057 229.041,162.642 229.702,162.891 229.856 C 163.141 230.011,162.841 229.476,162.225 228.668 C 160.888 226.915,160.384 226.692,161.591 228.388 M179.600 231.200 C 180.070 231.860,180.544 232.400,180.654 232.400 C 180.764 232.400,180.470 231.860,180.000 231.200 C 179.530 230.540,179.056 230.000,178.946 230.000 C 178.836 230.000,179.130 230.540,179.600 231.200 M163.991 231.588 C 164.457 232.241,165.042 232.902,165.291 233.056 C 165.541 233.211,165.241 232.676,164.625 231.868 C 163.288 230.115,162.784 229.892,163.991 231.588 M150.000 232.925 C 150.000 232.994,150.585 233.579,151.300 234.225 L 152.600 235.400 151.425 234.100 C 150.330 232.888,150.000 232.616,150.000 232.925 M266.369 235.300 C 264.079 237.935,262.697 239.794,264.400 237.947 C 266.219 235.976,268.877 232.800,268.708 232.800 C 268.617 232.800,267.564 233.925,266.369 235.300 M181.991 234.388 C 182.457 235.041,183.042 235.702,183.291 235.856 C 183.541 236.011,183.241 235.476,182.625 234.668 C 181.288 232.915,180.784 232.692,181.991 234.388 M166.391 234.788 C 166.857 235.441,167.442 236.102,167.691 236.256 C 167.941 236.411,167.641 235.876,167.025 235.068 C 165.688 233.315,165.184 233.092,166.391 234.788 M184.391 237.588 C 184.857 238.241,185.442 238.902,185.691 239.056 C 185.941 239.211,185.641 238.676,185.025 237.868 C 183.688 236.115,183.184 235.892,184.391 237.588 M154.000 237.725 C 154.000 237.794,154.573 238.379,155.274 239.025 L 156.549 240.200 155.574 238.922 C 154.747 237.837,154.000 237.269,154.000 237.725 M169.775 239.332 C 170.391 240.139,170.976 240.800,171.075 240.800 C 171.353 240.800,169.621 238.460,169.109 238.144 C 168.859 237.989,169.159 238.524,169.775 239.332 M172.175 242.532 C 172.791 243.339,173.376 244.000,173.475 244.000 C 173.753 244.000,172.021 241.660,171.509 241.344 C 171.259 241.189,171.559 241.724,172.175 242.532 M257.700 245.616 C 256.437 247.175,256.571 247.533,257.850 246.014 C 258.427 245.328,258.832 244.708,258.750 244.636 C 258.667 244.564,258.195 245.005,257.700 245.616 M174.987 254.500 L 175.000 262.600 181.100 262.616 L 187.201 262.632 181.209 262.506 L 175.216 262.379 175.096 254.389 L 174.975 246.399 174.987 254.500 M162.592 261.600 L 162.600 275.000 209.400 275.000 L 256.200 275.000 256.208 261.600 L 256.217 248.200 256.103 261.500 L 255.989 274.800 209.400 274.800 L 162.811 274.800 162.697 261.500 L 162.583 248.200 162.592 261.600 " stroke="none" fill="#ae5c34" fill-rule="evenodd"></path></g></svg>